<?xml version="1.0" encoding="UTF-8"?>
<svg xmlns="http://www.w3.org/2000/svg" viewBox="0 0 2560 1440" preserveAspectRatio="xMidYMid slice">
  <defs>
    <filter id="layerBlur" x="-20%" y="-20%" width="140%" height="140%">
      <feGaussianBlur stdDeviation="2.1"/>
    </filter>
    <linearGradient id="fadeMask" x1="0%" y1="0%" x2="0%" y2="100%">
      <stop offset="0%" stop-color="#ffffff" stop-opacity="0"/>
      <stop offset="42%" stop-color="#ffffff" stop-opacity="0.72"/>
      <stop offset="100%" stop-color="#ffffff" stop-opacity="1"/>
    </linearGradient>
    <mask id="treeMask">
      <rect x="0" y="0" width="2560" height="1440" fill="url(#fadeMask)"/>
    </mask>
  </defs>
  <g filter="url(#layerBlur)" mask="url(#treeMask)">
    <path d="M 12.00 635.36 L -34.62 688.78 L -22.99 678.10 L 46.06 678.10 L 58.62 688.78 Z" fill="#0e1c1f" opacity="0.3997198103844421"/><path d="M 12.00 587.29 L -65.22 654.06 L -37.35 643.37 L 59.80 643.37 L 89.22 654.06 Z" fill="#0e1c1f" opacity="0.3997198103844421"/><path d="M 12.00 539.21 L -86.04 619.34 L -44.57 608.65 L 66.61 608.65 L 110.04 619.34 Z" fill="#0e1c1f" opacity="0.3997198103844421"/><path d="M 12.00 491.14 L -110.59 584.62 L -61.43 573.93 L 82.98 573.93 L 134.59 584.62 Z" fill="#0e1c1f" opacity="0.3997198103844421"/><rect x="7.99" y="720.83" width="8.01" height="64.10" rx="4.01" fill="#081017" opacity="0.360"/>
    <path d="M 76.49 689.50 L 12.98 760.76 L 30.61 746.51 L 121.10 746.51 L 140.00 760.76 Z" fill="#0e1c1f" opacity="0.3233774356219219"/><path d="M 76.49 625.36 L -26.11 714.44 L 9.93 700.19 L 141.00 700.19 L 179.10 714.44 Z" fill="#0e1c1f" opacity="0.3233774356219219"/><path d="M 76.49 561.22 L -57.64 668.12 L -10.14 653.86 L 160.44 653.86 L 210.62 668.12 Z" fill="#0e1c1f" opacity="0.3233774356219219"/><path d="M 76.49 497.09 L -92.52 621.80 L -31.17 607.54 L 180.77 607.54 L 245.50 621.80 Z" fill="#0e1c1f" opacity="0.3233774356219219"/><rect x="71.15" y="803.52" width="10.69" height="85.51" rx="5.34" fill="#081017" opacity="0.291"/>
    <path d="M 98.41 664.51 L 32.60 727.53 L 63.70 714.93 L 131.79 714.93 L 164.21 727.53 Z" fill="#0e1c1f" opacity="0.358615465656625"/><path d="M 98.41 607.79 L 16.47 686.57 L 41.77 673.96 L 153.40 673.96 L 180.34 686.57 Z" fill="#0e1c1f" opacity="0.358615465656625"/><path d="M 98.41 551.06 L -12.66 645.60 L 29.53 633.00 L 165.06 633.00 L 209.47 645.60 Z" fill="#0e1c1f" opacity="0.358615465656625"/><path d="M 98.41 494.34 L -43.22 604.64 L 12.80 592.03 L 181.18 592.03 L 240.03 604.64 Z" fill="#0e1c1f" opacity="0.358615465656625"/><rect x="93.68" y="765.35" width="9.45" height="75.63" rx="4.73" fill="#081017" opacity="0.323"/>
    <path d="M 165.16 668.96 L 109.10 733.46 L 122.78 720.56 L 206.43 720.56 L 221.23 733.46 Z" fill="#0e1c1f" opacity="0.35233525897083745"/><path d="M 165.16 610.92 L 70.73 691.53 L 110.14 678.64 L 218.29 678.64 L 259.59 691.53 Z" fill="#0e1c1f" opacity="0.35233525897083745"/><path d="M 165.16 552.87 L 44.33 649.61 L 80.43 636.72 L 247.48 636.72 L 285.99 649.61 Z" fill="#0e1c1f" opacity="0.35233525897083745"/><path d="M 165.16 494.83 L 12.18 607.69 L 59.25 594.80 L 268.02 594.80 L 318.15 607.69 Z" fill="#0e1c1f" opacity="0.35233525897083745"/><rect x="160.33" y="772.15" width="9.67" height="77.39" rx="4.84" fill="#081017" opacity="0.317"/>
    <path d="M 170.51 611.15 L 131.88 656.58 L 140.12 647.50 L 200.13 647.50 L 209.14 656.58 Z" fill="#0e1c1f" opacity="0.4338652885465417"/><path d="M 170.51 570.26 L 105.75 627.05 L 130.74 617.97 L 208.99 617.97 L 235.28 627.05 Z" fill="#0e1c1f" opacity="0.4338652885465417"/><path d="M 170.51 529.37 L 87.28 597.52 L 113.97 588.43 L 225.39 588.43 L 253.75 597.52 Z" fill="#0e1c1f" opacity="0.4338652885465417"/><path d="M 170.51 488.48 L 67.28 567.99 L 108.92 558.90 L 230.03 558.90 L 273.74 567.99 Z" fill="#0e1c1f" opacity="0.4338652885465417"/><rect x="167.10" y="683.84" width="6.82" height="54.52" rx="3.41" fill="#081017" opacity="0.390"/>
    <path d="M 241.86 687.03 L 169.99 757.49 L 202.04 743.40 L 280.25 743.40 L 313.73 757.49 Z" fill="#0e1c1f" opacity="0.32684826400578276"/><path d="M 241.86 623.63 L 145.52 711.69 L 180.41 697.60 L 301.39 697.60 L 338.20 711.69 Z" fill="#0e1c1f" opacity="0.32684826400578276"/><path d="M 241.86 560.22 L 106.01 665.90 L 155.31 651.81 L 325.70 651.81 L 377.71 665.90 Z" fill="#0e1c1f" opacity="0.32684826400578276"/><path d="M 241.86 496.82 L 83.38 620.11 L 141.99 606.02 L 338.56 606.02 L 400.34 620.11 Z" fill="#0e1c1f" opacity="0.32684826400578276"/><rect x="236.58" y="799.76" width="10.57" height="84.54" rx="5.28" fill="#081017" opacity="0.294"/>
    <path d="M 273.84 681.60 L 213.47 750.26 L 229.13 736.53 L 317.33 736.53 L 334.21 750.26 Z" fill="#0e1c1f" opacity="0.3345147089346865"/><path d="M 273.84 619.81 L 180.65 705.63 L 206.65 691.90 L 339.16 691.90 L 367.02 705.63 Z" fill="#0e1c1f" opacity="0.3345147089346865"/><path d="M 273.84 558.01 L 151.17 661.00 L 200.05 647.27 L 345.17 647.27 L 396.50 661.00 Z" fill="#0e1c1f" opacity="0.3345147089346865"/><path d="M 273.84 496.22 L 113.61 616.37 L 166.91 602.64 L 377.55 602.64 L 434.06 616.37 Z" fill="#0e1c1f" opacity="0.3345147089346865"/><rect x="268.69" y="791.45" width="10.30" height="82.39" rx="5.15" fill="#081017" opacity="0.301"/>
    <path d="M 355.14 704.12 L 279.13 780.20 L 311.15 764.98 L 397.60 764.98 L 431.14 780.20 Z" fill="#0e1c1f" opacity="0.30275759979436406"/><path d="M 355.14 635.64 L 244.49 730.75 L 289.01 715.53 L 419.05 715.53 L 465.78 730.75 Z" fill="#0e1c1f" opacity="0.30275759979436406"/><path d="M 355.14 567.17 L 217.38 681.29 L 264.14 666.08 L 443.38 666.08 L 492.89 681.29 Z" fill="#0e1c1f" opacity="0.30275759979436406"/><path d="M 355.14 498.69 L 180.27 631.84 L 248.01 616.62 L 458.76 616.62 L 530.00 631.84 Z" fill="#0e1c1f" opacity="0.30275759979436406"/><rect x="349.43" y="825.85" width="11.41" height="91.30" rx="5.71" fill="#081017" opacity="0.272"/>
    <path d="M 349.85 671.19 L 282.67 736.42 L 313.37 723.37 L 384.98 723.37 L 417.03 736.42 Z" fill="#0e1c1f" opacity="0.3491925180090025"/><path d="M 349.85 612.49 L 258.25 694.02 L 294.86 680.97 L 403.01 680.97 L 441.44 694.02 Z" fill="#0e1c1f" opacity="0.3491925180090025"/><path d="M 349.85 553.78 L 225.49 651.62 L 276.89 638.58 L 420.32 638.58 L 474.21 651.62 Z" fill="#0e1c1f" opacity="0.3491925180090025"/><path d="M 349.85 495.08 L 200.33 609.22 L 246.46 596.18 L 450.25 596.18 L 499.36 609.22 Z" fill="#0e1c1f" opacity="0.3491925180090025"/><rect x="344.96" y="775.56" width="9.78" height="78.27" rx="4.89" fill="#081017" opacity="0.314"/>
    <path d="M 390.60 690.13 L 319.00 761.61 L 349.40 747.31 L 430.36 747.31 L 462.20 761.61 Z" fill="#0e1c1f" opacity="0.32247636582936684"/><path d="M 390.60 625.81 L 292.83 715.15 L 329.77 700.86 L 449.47 700.86 L 488.36 715.15 Z" fill="#0e1c1f" opacity="0.32247636582936684"/><path d="M 390.60 561.48 L 257.46 668.69 L 312.11 654.40 L 466.43 654.40 L 523.73 668.69 Z" fill="#0e1c1f" opacity="0.32247636582936684"/><path d="M 390.60 497.16 L 230.57 622.24 L 288.53 607.94 L 489.46 607.94 L 550.63 622.24 Z" fill="#0e1c1f" opacity="0.32247636582936684"/><rect x="385.24" y="804.49" width="10.72" height="85.77" rx="5.36" fill="#081017" opacity="0.290"/>
    <path d="M 431.80 656.03 L 379.35 716.26 L 392.28 704.21 L 470.28 704.21 L 484.26 716.26 Z" fill="#0e1c1f" opacity="0.3705742571432347"/><path d="M 431.80 601.82 L 345.67 677.11 L 380.46 665.06 L 481.43 665.06 L 517.94 677.11 Z" fill="#0e1c1f" opacity="0.3705742571432347"/><path d="M 431.80 547.62 L 320.59 637.96 L 360.79 625.91 L 500.60 625.91 L 543.02 637.96 Z" fill="#0e1c1f" opacity="0.3705742571432347"/><path d="M 431.80 493.41 L 290.98 598.81 L 340.97 586.77 L 519.82 586.77 L 572.63 598.81 Z" fill="#0e1c1f" opacity="0.3705742571432347"/><rect x="427.29" y="752.40" width="9.03" height="72.28" rx="4.52" fill="#081017" opacity="0.334"/>
    <path d="M 521.92 659.23 L 461.57 720.51 L 485.95 708.26 L 556.67 708.26 L 582.26 720.51 Z" fill="#0e1c1f" opacity="0.3660628258464967"/><path d="M 521.92 604.07 L 437.14 680.68 L 472.53 668.42 L 569.61 668.42 L 606.69 680.68 Z" fill="#0e1c1f" opacity="0.3660628258464967"/><path d="M 521.92 548.92 L 410.01 640.84 L 444.64 628.59 L 596.96 628.59 L 633.82 640.84 Z" fill="#0e1c1f" opacity="0.3660628258464967"/><path d="M 521.92 493.76 L 382.45 601.01 L 430.27 588.75 L 610.78 588.75 L 661.39 601.01 Z" fill="#0e1c1f" opacity="0.3660628258464967"/><rect x="517.32" y="757.28" width="9.19" height="73.54" rx="4.60" fill="#081017" opacity="0.329"/>
    <path d="M 544.21 608.78 L 497.45 653.44 L 519.71 644.51 L 567.77 644.51 L 590.98 653.44 Z" fill="#0e1c1f" opacity="0.43720343860631694"/><path d="M 544.21 568.59 L 482.47 624.41 L 508.27 615.48 L 578.92 615.48 L 605.96 624.41 Z" fill="#0e1c1f" opacity="0.43720343860631694"/><path d="M 544.21 528.41 L 459.18 595.39 L 493.86 586.46 L 592.86 586.46 L 629.24 595.39 Z" fill="#0e1c1f" opacity="0.43720343860631694"/><path d="M 544.21 488.22 L 443.26 566.36 L 482.66 557.43 L 603.74 557.43 L 645.16 566.36 Z" fill="#0e1c1f" opacity="0.43720343860631694"/><rect x="540.86" y="680.23" width="6.70" height="53.58" rx="3.35" fill="#081017" opacity="0.393"/>
    <path d="M 635.61 642.95 L 586.55 698.86 L 599.13 687.68 L 671.10 687.68 L 684.67 698.86 Z" fill="#0e1c1f" opacity="0.38902302995923677"/><path d="M 635.61 592.62 L 559.44 662.52 L 580.92 651.33 L 688.77 651.33 L 711.78 662.52 Z" fill="#0e1c1f" opacity="0.38902302995923677"/><path d="M 635.61 542.30 L 532.48 626.17 L 570.03 614.99 L 699.12 614.99 L 738.74 626.17 Z" fill="#0e1c1f" opacity="0.38902302995923677"/><path d="M 635.61 491.97 L 510.06 589.83 L 558.40 578.64 L 710.31 578.64 L 761.16 589.83 Z" fill="#0e1c1f" opacity="0.38902302995923677"/><rect x="631.42" y="732.41" width="8.39" height="67.10" rx="4.19" fill="#081017" opacity="0.350"/>
    <path d="M 693.84 639.66 L 643.38 694.50 L 659.50 683.53 L 727.17 683.53 L 744.30 694.50 Z" fill="#0e1c1f" opacity="0.39365202996955484"/><path d="M 693.84 590.31 L 619.54 658.86 L 644.03 647.89 L 742.16 647.89 L 768.14 658.86 Z" fill="#0e1c1f" opacity="0.39365202996955484"/><path d="M 693.84 540.96 L 595.60 623.21 L 630.66 612.25 L 755.05 612.25 L 792.08 623.21 Z" fill="#0e1c1f" opacity="0.39365202996955484"/><path d="M 693.84 491.61 L 571.21 587.57 L 610.45 576.61 L 774.77 576.61 L 816.47 587.57 Z" fill="#0e1c1f" opacity="0.39365202996955484"/><rect x="689.73" y="727.40" width="8.23" height="65.80" rx="4.11" fill="#081017" opacity="0.354"/>
    <path d="M 711.23 685.59 L 644.47 755.57 L 668.86 741.57 L 752.27 741.57 L 778.00 755.57 Z" fill="#0e1c1f" opacity="0.3288847625066337"/><path d="M 711.23 622.61 L 610.78 710.08 L 642.08 696.09 L 778.38 696.09 L 811.69 710.08 Z" fill="#0e1c1f" opacity="0.3288847625066337"/><path d="M 711.23 559.64 L 579.26 664.60 L 633.70 650.60 L 786.13 650.60 L 843.21 664.60 Z" fill="#0e1c1f" opacity="0.3288847625066337"/><path d="M 711.23 496.66 L 552.57 619.11 L 605.95 605.12 L 813.34 605.12 L 869.90 619.11 Z" fill="#0e1c1f" opacity="0.3288847625066337"/><rect x="705.99" y="797.55" width="10.50" height="83.97" rx="5.25" fill="#081017" opacity="0.296"/>
    <path d="M 760.70 661.14 L 700.39 723.05 L 723.97 710.67 L 796.23 710.67 L 821.02 723.05 Z" fill="#0e1c1f" opacity="0.3633730523755948"/><path d="M 760.70 605.41 L 668.23 682.80 L 706.45 670.42 L 813.10 670.42 L 853.17 682.80 Z" fill="#0e1c1f" opacity="0.3633730523755948"/><path d="M 760.70 549.69 L 648.70 642.56 L 689.01 630.18 L 830.15 630.18 L 872.71 642.56 Z" fill="#0e1c1f" opacity="0.3633730523755948"/><path d="M 760.70 493.97 L 621.08 602.32 L 674.61 589.94 L 844.00 589.94 L 900.32 602.32 Z" fill="#0e1c1f" opacity="0.3633730523755948"/><rect x="756.06" y="760.20" width="9.29" height="74.30" rx="4.64" fill="#081017" opacity="0.327"/>
    <path d="M 786.55 662.43 L 725.34 724.77 L 749.85 712.30 L 822.01 712.30 L 847.75 724.77 Z" fill="#0e1c1f" opacity="0.36154804190983125"/><path d="M 786.55 606.32 L 694.37 684.25 L 723.52 671.78 L 847.73 671.78 L 878.72 684.25 Z" fill="#0e1c1f" opacity="0.36154804190983125"/><path d="M 786.55 550.22 L 676.51 643.73 L 712.81 631.26 L 858.08 631.26 L 896.58 643.73 Z" fill="#0e1c1f" opacity="0.36154804190983125"/><path d="M 786.55 494.11 L 638.63 603.21 L 693.77 590.74 L 876.37 590.74 L 934.46 603.21 Z" fill="#0e1c1f" opacity="0.36154804190983125"/><rect x="781.87" y="762.17" width="9.35" height="74.81" rx="4.68" fill="#081017" opacity="0.325"/>
    <path d="M 871.44 652.27 L 819.22 711.26 L 833.25 699.46 L 908.59 699.46 L 923.67 711.26 Z" fill="#0e1c1f" opacity="0.37588090446961"/><path d="M 871.44 599.18 L 787.51 672.91 L 825.03 661.11 L 916.18 661.11 L 955.38 672.91 Z" fill="#0e1c1f" opacity="0.37588090446961"/><path d="M 871.44 546.09 L 761.64 634.57 L 803.51 622.77 L 937.18 622.77 L 981.25 634.57 Z" fill="#0e1c1f" opacity="0.37588090446961"/><path d="M 871.44 493.00 L 732.67 596.23 L 788.80 584.43 L 951.31 584.43 L 1010.21 596.23 Z" fill="#0e1c1f" opacity="0.37588090446961"/><rect x="867.02" y="746.65" width="8.85" height="70.79" rx="4.42" fill="#081017" opacity="0.338"/>
    <path d="M 868.48 705.89 L 801.82 782.56 L 818.10 767.22 L 917.52 767.22 L 935.15 782.56 Z" fill="#0e1c1f" opacity="0.30025703721283936"/><path d="M 868.48 636.89 L 765.93 732.72 L 795.40 717.39 L 939.52 717.39 L 971.03 732.72 Z" fill="#0e1c1f" opacity="0.30025703721283936"/><path d="M 868.48 567.89 L 726.40 682.89 L 780.40 667.56 L 953.72 667.56 L 1010.57 682.89 Z" fill="#0e1c1f" opacity="0.30025703721283936"/><path d="M 868.48 498.89 L 686.21 633.06 L 750.87 617.72 L 982.44 617.72 L 1050.75 633.06 Z" fill="#0e1c1f" opacity="0.30025703721283936"/><rect x="862.73" y="828.56" width="11.50" height="92.00" rx="5.75" fill="#081017" opacity="0.270"/>
    <path d="M 953.32 631.25 L 906.14 683.31 L 920.27 672.90 L 985.42 672.90 L 1000.49 683.31 Z" fill="#0e1c1f" opacity="0.4055182252624727"/><path d="M 953.32 584.40 L 878.75 649.47 L 905.76 639.06 L 999.38 639.06 L 1027.88 649.47 Z" fill="#0e1c1f" opacity="0.4055182252624727"/><path d="M 953.32 537.54 L 853.62 615.63 L 883.82 605.22 L 1020.81 605.22 L 1053.02 615.63 Z" fill="#0e1c1f" opacity="0.4055182252624727"/><path d="M 953.32 490.69 L 833.41 581.79 L 878.45 571.38 L 1025.78 571.38 L 1073.22 581.79 Z" fill="#0e1c1f" opacity="0.4055182252624727"/><rect x="949.41" y="714.55" width="7.81" height="62.47" rx="3.90" fill="#081017" opacity="0.365"/>
    <path d="M 968.43 642.52 L 917.98 698.30 L 932.96 687.15 L 1002.88 687.15 L 1018.87 698.30 Z" fill="#0e1c1f" opacity="0.3896192812026129"/><path d="M 968.43 592.32 L 891.25 662.05 L 921.13 650.89 L 1014.17 650.89 L 1045.61 662.05 Z" fill="#0e1c1f" opacity="0.3896192812026129"/><path d="M 968.43 542.13 L 868.10 625.79 L 900.78 614.64 L 1034.06 614.64 L 1068.75 625.79 Z" fill="#0e1c1f" opacity="0.3896192812026129"/><path d="M 968.43 491.93 L 844.56 589.54 L 893.18 578.38 L 1041.19 578.38 L 1092.29 589.54 Z" fill="#0e1c1f" opacity="0.3896192812026129"/><rect x="964.24" y="731.77" width="8.37" height="66.93" rx="4.18" fill="#081017" opacity="0.351"/>
    <path d="M 1060.91 704.17 L 981.42 780.26 L 1019.04 765.04 L 1101.20 765.04 L 1140.41 780.26 Z" fill="#0e1c1f" opacity="0.30268940429120267"/><path d="M 1060.91 635.68 L 959.07 730.80 L 1003.61 715.58 L 1116.18 715.58 L 1162.75 730.80 Z" fill="#0e1c1f" opacity="0.30268940429120267"/><path d="M 1060.91 567.19 L 919.59 681.34 L 977.50 666.12 L 1141.50 666.12 L 1202.23 681.34 Z" fill="#0e1c1f" opacity="0.30268940429120267"/><path d="M 1060.91 498.70 L 882.52 631.87 L 954.59 616.65 L 1163.67 616.65 L 1239.31 631.87 Z" fill="#0e1c1f" opacity="0.30268940429120267"/><rect x="1055.20" y="825.92" width="11.41" height="91.32" rx="5.71" fill="#081017" opacity="0.272"/>
    <path d="M 1039.42 650.67 L 984.94 709.13 L 1003.22 697.44 L 1074.52 697.44 L 1093.89 709.13 Z" fill="#0e1c1f" opacity="0.3781323050787105"/><path d="M 1039.42 598.05 L 959.43 671.13 L 995.44 659.44 L 1081.80 659.44 L 1119.41 671.13 Z" fill="#0e1c1f" opacity="0.3781323050787105"/><path d="M 1039.42 545.44 L 926.94 633.13 L 963.58 621.44 L 1113.01 621.44 L 1151.90 633.13 Z" fill="#0e1c1f" opacity="0.3781323050787105"/><path d="M 1039.42 492.82 L 910.63 595.13 L 951.27 583.44 L 1124.99 583.44 L 1168.21 595.13 Z" fill="#0e1c1f" opacity="0.3781323050787105"/><rect x="1035.03" y="744.21" width="8.77" height="70.16" rx="4.38" fill="#081017" opacity="0.340"/>
    <path d="M 1121.78 709.36 L 1055.46 787.17 L 1069.84 771.60 L 1172.40 771.60 L 1188.11 787.17 Z" fill="#0e1c1f" opacity="0.29536999136924713"/><path d="M 1121.78 639.33 L 1019.66 736.59 L 1062.43 721.03 L 1179.10 721.03 L 1223.91 736.59 Z" fill="#0e1c1f" opacity="0.29536999136924713"/><path d="M 1121.78 569.30 L 972.92 686.01 L 1025.36 670.45 L 1215.23 670.45 L 1270.65 686.01 Z" fill="#0e1c1f" opacity="0.29536999136924713"/><path d="M 1121.78 499.27 L 948.05 635.44 L 1005.05 619.87 L 1235.04 619.87 L 1295.52 635.44 Z" fill="#0e1c1f" opacity="0.29536999136924713"/><rect x="1115.95" y="833.85" width="11.67" height="93.37" rx="5.84" fill="#081017" opacity="0.266"/>
    <path d="M 1124.46 637.03 L 1074.61 690.99 L 1090.79 680.20 L 1157.14 680.20 L 1174.32 690.99 Z" fill="#0e1c1f" opacity="0.39737388140785335"/><path d="M 1124.46 588.46 L 1052.75 655.91 L 1072.29 645.12 L 1175.20 645.12 L 1196.18 655.91 Z" fill="#0e1c1f" opacity="0.39737388140785335"/><path d="M 1124.46 539.89 L 1028.78 620.84 L 1064.30 610.04 L 1182.72 610.04 L 1220.15 620.84 Z" fill="#0e1c1f" opacity="0.39737388140785335"/><path d="M 1124.46 491.32 L 1001.35 585.76 L 1048.89 574.97 L 1197.57 574.97 L 1247.58 585.76 Z" fill="#0e1c1f" opacity="0.39737388140785335"/><rect x="1120.42" y="723.37" width="8.09" height="64.76" rx="4.05" fill="#081017" opacity="0.358"/>
    <path d="M 1213.36 620.90 L 1172.01 669.55 L 1180.82 659.82 L 1245.08 659.82 L 1254.72 669.55 Z" fill="#0e1c1f" opacity="0.4201167100005914"/><path d="M 1213.36 577.12 L 1147.95 637.93 L 1165.47 628.20 L 1259.95 628.20 L 1278.77 637.93 Z" fill="#0e1c1f" opacity="0.4201167100005914"/><path d="M 1213.36 533.33 L 1126.12 606.30 L 1159.69 596.58 L 1265.29 596.58 L 1300.60 606.30 Z" fill="#0e1c1f" opacity="0.4201167100005914"/><path d="M 1213.36 489.55 L 1100.45 574.68 L 1146.61 564.95 L 1277.86 564.95 L 1326.28 574.68 Z" fill="#0e1c1f" opacity="0.4201167100005914"/><rect x="1209.71" y="698.74" width="7.30" height="58.38" rx="3.65" fill="#081017" opacity="0.378"/>
    <path d="M 1253.62 685.28 L 1190.60 755.15 L 1209.10 741.17 L 1296.89 741.17 L 1316.65 755.15 Z" fill="#0e1c1f" opacity="0.3293294202149482"/><path d="M 1253.62 622.39 L 1151.91 709.73 L 1188.96 695.76 L 1316.25 695.76 L 1355.33 709.73 Z" fill="#0e1c1f" opacity="0.3293294202149482"/><path d="M 1253.62 559.51 L 1124.19 664.31 L 1171.65 650.34 L 1333.01 650.34 L 1383.06 664.31 Z" fill="#0e1c1f" opacity="0.3293294202149482"/><path d="M 1253.62 496.62 L 1093.59 618.90 L 1149.34 604.92 L 1354.71 604.92 L 1413.66 618.90 Z" fill="#0e1c1f" opacity="0.3293294202149482"/><rect x="1248.38" y="797.07" width="10.48" height="83.85" rx="5.24" fill="#081017" opacity="0.296"/>
    <path d="M 1302.55 633.29 L 1252.87 686.02 L 1270.23 675.48 L 1333.87 675.48 L 1352.23 686.02 Z" fill="#0e1c1f" opacity="0.4026407357780408"/><path d="M 1302.55 585.83 L 1230.55 651.75 L 1251.10 641.20 L 1352.56 641.20 L 1374.54 651.75 Z" fill="#0e1c1f" opacity="0.4026407357780408"/><path d="M 1302.55 538.37 L 1202.40 617.47 L 1238.89 606.92 L 1364.20 606.92 L 1402.70 617.47 Z" fill="#0e1c1f" opacity="0.4026407357780408"/><path d="M 1302.55 490.91 L 1177.05 583.19 L 1227.86 572.65 L 1374.73 572.65 L 1428.05 583.19 Z" fill="#0e1c1f" opacity="0.4026407357780408"/><rect x="1298.59" y="717.66" width="7.91" height="63.28" rx="3.96" fill="#081017" opacity="0.362"/>
    <path d="M 1340.00 612.72 L 1297.18 658.68 L 1311.56 649.49 L 1367.59 649.49 L 1382.83 658.68 Z" fill="#0e1c1f" opacity="0.4316462766782643"/><path d="M 1340.00 571.37 L 1279.85 628.81 L 1304.87 619.62 L 1373.93 619.62 L 1400.16 628.81 Z" fill="#0e1c1f" opacity="0.4316462766782643"/><path d="M 1340.00 530.01 L 1250.66 598.94 L 1280.54 589.75 L 1397.67 589.75 L 1429.35 598.94 Z" fill="#0e1c1f" opacity="0.4316462766782643"/><path d="M 1340.00 488.65 L 1237.60 569.07 L 1271.18 559.88 L 1406.77 559.88 L 1442.41 569.07 Z" fill="#0e1c1f" opacity="0.4316462766782643"/><rect x="1336.56" y="686.25" width="6.89" height="55.14" rx="3.45" fill="#081017" opacity="0.388"/>
    <path d="M 1408.20 709.74 L 1333.57 787.67 L 1361.18 772.08 L 1453.73 772.08 L 1482.84 787.67 Z" fill="#0e1c1f" opacity="0.29483314665101557"/><path d="M 1408.20 639.59 L 1291.48 737.01 L 1332.13 721.43 L 1481.94 721.43 L 1524.93 737.01 Z" fill="#0e1c1f" opacity="0.29483314665101557"/><path d="M 1408.20 569.45 L 1265.43 686.36 L 1321.12 670.77 L 1492.43 670.77 L 1550.98 686.36 Z" fill="#0e1c1f" opacity="0.29483314665101557"/><path d="M 1408.20 499.31 L 1227.87 635.70 L 1290.11 620.11 L 1522.69 620.11 L 1588.54 635.70 Z" fill="#0e1c1f" opacity="0.29483314665101557"/><rect x="1402.36" y="834.43" width="11.69" height="93.52" rx="5.85" fill="#081017" opacity="0.265"/>
    <path d="M 1445.98 707.06 L 1374.43 784.11 L 1398.13 768.70 L 1492.40 768.70 L 1517.54 784.11 Z" fill="#0e1c1f" opacity="0.2986145191618998"/><path d="M 1445.98 637.71 L 1340.64 734.02 L 1383.24 718.61 L 1506.62 718.61 L 1551.32 734.02 Z" fill="#0e1c1f" opacity="0.2986145191618998"/><path d="M 1445.98 568.36 L 1308.70 683.94 L 1360.99 668.53 L 1528.23 668.53 L 1583.26 683.94 Z" fill="#0e1c1f" opacity="0.2986145191618998"/><path d="M 1445.98 499.02 L 1268.63 633.86 L 1327.30 618.45 L 1561.12 618.45 L 1623.33 633.86 Z" fill="#0e1c1f" opacity="0.2986145191618998"/><rect x="1440.20" y="830.34" width="11.56" height="92.46" rx="5.78" fill="#081017" opacity="0.269"/>
    <path d="M 1491.49 715.16 L 1414.90 794.88 L 1443.53 778.94 L 1537.91 778.94 L 1568.07 794.88 Z" fill="#0e1c1f" opacity="0.2871827006953245"/><path d="M 1491.49 643.41 L 1372.25 743.06 L 1421.97 727.12 L 1558.62 727.12 L 1610.72 743.06 Z" fill="#0e1c1f" opacity="0.2871827006953245"/><path d="M 1491.49 571.66 L 1339.97 691.24 L 1389.22 675.30 L 1590.72 675.30 L 1643.00 691.24 Z" fill="#0e1c1f" opacity="0.2871827006953245"/><path d="M 1491.49 499.91 L 1305.15 639.42 L 1372.44 623.48 L 1606.81 623.48 L 1677.82 639.42 Z" fill="#0e1c1f" opacity="0.2871827006953245"/><rect x="1485.51" y="842.72" width="11.96" height="95.67" rx="5.98" fill="#081017" opacity="0.258"/>
    <path d="M 1525.62 672.87 L 1469.09 738.65 L 1481.98 725.49 L 1568.12 725.49 L 1582.14 738.65 Z" fill="#0e1c1f" opacity="0.3468266530776182"/><path d="M 1525.62 613.67 L 1438.66 695.89 L 1462.07 682.74 L 1587.43 682.74 L 1612.57 695.89 Z" fill="#0e1c1f" opacity="0.3468266530776182"/><path d="M 1525.62 554.46 L 1410.03 653.13 L 1447.17 639.98 L 1601.75 639.98 L 1641.20 653.13 Z" fill="#0e1c1f" opacity="0.3468266530776182"/><path d="M 1525.62 495.26 L 1374.73 610.38 L 1437.27 597.22 L 1610.94 597.22 L 1676.50 610.38 Z" fill="#0e1c1f" opacity="0.3468266530776182"/><rect x="1520.68" y="778.12" width="9.87" height="78.94" rx="4.93" fill="#081017" opacity="0.312"/>
    <path d="M 1574.59 685.88 L 1510.10 755.95 L 1530.72 741.93 L 1617.17 741.93 L 1639.08 755.95 Z" fill="#0e1c1f" opacity="0.32848050494256315"/><path d="M 1574.59 622.81 L 1471.36 710.40 L 1514.39 696.39 L 1632.72 696.39 L 1677.81 710.40 Z" fill="#0e1c1f" opacity="0.32848050494256315"/><path d="M 1574.59 559.75 L 1441.76 664.86 L 1488.32 650.84 L 1658.20 650.84 L 1707.41 664.86 Z" fill="#0e1c1f" opacity="0.32848050494256315"/><path d="M 1574.59 496.69 L 1412.47 619.31 L 1470.01 605.30 L 1675.92 605.30 L 1736.70 619.31 Z" fill="#0e1c1f" opacity="0.32848050494256315"/><rect x="1569.33" y="797.99" width="10.51" height="84.08" rx="5.26" fill="#081017" opacity="0.296"/>
    <path d="M 1618.23 686.25 L 1557.18 756.45 L 1572.11 742.41 L 1663.13 742.41 L 1679.27 756.45 Z" fill="#0e1c1f" opacity="0.32794846085882456"/><path d="M 1618.23 623.08 L 1519.80 710.82 L 1560.40 696.78 L 1674.09 696.78 L 1716.65 710.82 Z" fill="#0e1c1f" opacity="0.32794846085882456"/><path d="M 1618.23 559.91 L 1485.03 665.20 L 1540.14 651.16 L 1693.65 651.16 L 1751.42 665.20 Z" fill="#0e1c1f" opacity="0.32794846085882456"/><path d="M 1618.23 496.73 L 1456.95 619.57 L 1520.54 605.53 L 1712.69 605.53 L 1779.50 619.57 Z" fill="#0e1c1f" opacity="0.32794846085882456"/><rect x="1612.96" y="798.56" width="10.53" height="84.23" rx="5.26" fill="#081017" opacity="0.295"/>
    <path d="M 1661.04 646.55 L 1602.13 703.66 L 1629.16 692.24 L 1691.74 692.24 L 1719.95 703.66 Z" fill="#0e1c1f" opacity="0.3839364200327109"/><path d="M 1661.04 595.16 L 1585.88 666.54 L 1614.01 655.12 L 1706.56 655.12 L 1736.20 666.54 Z" fill="#0e1c1f" opacity="0.3839364200327109"/><path d="M 1661.04 543.76 L 1551.42 629.42 L 1583.86 618.00 L 1736.03 618.00 L 1770.66 629.42 Z" fill="#0e1c1f" opacity="0.3839364200327109"/><path d="M 1661.04 492.37 L 1528.29 592.30 L 1576.65 580.88 L 1742.78 580.88 L 1793.78 592.30 Z" fill="#0e1c1f" opacity="0.3839364200327109"/><rect x="1656.76" y="737.92" width="8.57" height="68.53" rx="4.28" fill="#081017" opacity="0.346"/>
    <path d="M 1739.80 658.56 L 1678.29 719.62 L 1704.81 707.41 L 1773.56 707.41 L 1801.32 719.62 Z" fill="#0e1c1f" opacity="0.36700724711677324"/><path d="M 1739.80 603.60 L 1659.30 679.93 L 1680.80 667.72 L 1797.19 667.72 L 1820.30 679.93 Z" fill="#0e1c1f" opacity="0.36700724711677324"/><path d="M 1739.80 548.64 L 1631.65 640.24 L 1674.28 628.03 L 1803.16 628.03 L 1847.95 640.24 Z" fill="#0e1c1f" opacity="0.36700724711677324"/><path d="M 1739.80 493.69 L 1597.96 600.55 L 1643.93 588.34 L 1832.83 588.34 L 1881.64 600.55 Z" fill="#0e1c1f" opacity="0.36700724711677324"/><rect x="1735.22" y="756.26" width="9.16" height="73.28" rx="4.58" fill="#081017" opacity="0.330"/>
    <path d="M 1763.48 610.57 L 1721.55 655.82 L 1735.33 646.77 L 1790.79 646.77 L 1805.41 655.82 Z" fill="#0e1c1f" opacity="0.43467950916377596"/><path d="M 1763.48 569.85 L 1696.04 626.41 L 1716.90 617.36 L 1808.71 617.36 L 1830.92 626.41 Z" fill="#0e1c1f" opacity="0.43467950916377596"/><path d="M 1763.48 529.13 L 1683.49 597.00 L 1708.34 587.95 L 1817.02 587.95 L 1843.47 597.00 Z" fill="#0e1c1f" opacity="0.43467950916377596"/><path d="M 1763.48 488.41 L 1659.62 567.59 L 1700.53 558.54 L 1824.35 558.54 L 1867.34 567.59 Z" fill="#0e1c1f" opacity="0.43467950916377596"/><rect x="1760.09" y="682.96" width="6.79" height="54.29" rx="3.39" fill="#081017" opacity="0.391"/>
    <path d="M 1790.93 660.97 L 1735.18 722.83 L 1751.48 710.46 L 1829.26 710.46 L 1846.68 722.83 Z" fill="#0e1c1f" opacity="0.3636008330242112"/><path d="M 1790.93 605.30 L 1704.22 682.62 L 1730.85 670.25 L 1849.27 670.25 L 1877.64 682.62 Z" fill="#0e1c1f" opacity="0.3636008330242112"/><path d="M 1790.93 549.63 L 1671.81 642.42 L 1711.15 630.04 L 1868.32 630.04 L 1910.05 642.42 Z" fill="#0e1c1f" opacity="0.3636008330242112"/><path d="M 1790.93 493.95 L 1646.09 602.21 L 1700.43 589.84 L 1878.53 589.84 L 1935.76 602.21 Z" fill="#0e1c1f" opacity="0.3636008330242112"/><rect x="1786.29" y="759.95" width="9.28" height="74.23" rx="4.64" fill="#081017" opacity="0.327"/>
    <path d="M 1867.75 633.89 L 1822.10 686.81 L 1832.75 676.23 L 1901.85 676.23 L 1913.40 686.81 Z" fill="#0e1c1f" opacity="0.4018031737793426"/><path d="M 1867.75 586.25 L 1790.09 652.41 L 1814.23 641.82 L 1919.72 641.82 L 1945.42 652.41 Z" fill="#0e1c1f" opacity="0.4018031737793426"/><path d="M 1867.75 538.61 L 1767.80 618.01 L 1797.84 607.42 L 1935.67 607.42 L 1967.71 618.01 Z" fill="#0e1c1f" opacity="0.4018031737793426"/><path d="M 1867.75 490.98 L 1742.61 583.60 L 1784.07 573.02 L 1948.93 573.02 L 1992.90 583.60 Z" fill="#0e1c1f" opacity="0.4018031737793426"/><rect x="1863.78" y="718.57" width="7.94" height="63.51" rx="3.97" fill="#081017" opacity="0.362"/>
    <path d="M 1908.54 708.97 L 1838.71 786.65 L 1858.89 771.12 L 1956.80 771.12 L 1978.37 786.65 Z" fill="#0e1c1f" opacity="0.29591234837782393"/><path d="M 1908.54 639.06 L 1797.35 736.16 L 1831.61 720.62 L 1983.25 720.62 L 2019.74 736.16 Z" fill="#0e1c1f" opacity="0.29591234837782393"/><path d="M 1908.54 569.14 L 1758.09 685.67 L 1811.43 670.13 L 2002.65 670.13 L 2059.00 685.67 Z" fill="#0e1c1f" opacity="0.29591234837782393"/><path d="M 1908.54 499.23 L 1728.89 635.17 L 1798.28 619.64 L 2015.22 619.64 L 2088.19 635.17 Z" fill="#0e1c1f" opacity="0.29591234837782393"/><rect x="1902.72" y="833.26" width="11.65" height="93.22" rx="5.83" fill="#081017" opacity="0.266"/>
    <path d="M 1938.15 696.33 L 1867.07 769.85 L 1894.20 755.15 L 1980.67 755.15 L 2009.22 769.85 Z" fill="#0e1c1f" opacity="0.3137360043399676"/><path d="M 1938.15 630.17 L 1839.33 722.06 L 1870.35 707.36 L 2003.97 707.36 L 2036.96 722.06 Z" fill="#0e1c1f" opacity="0.3137360043399676"/><path d="M 1938.15 564.00 L 1799.40 674.28 L 1853.32 659.57 L 2020.20 659.57 L 2076.89 674.28 Z" fill="#0e1c1f" opacity="0.3137360043399676"/><path d="M 1938.15 497.84 L 1772.80 626.49 L 1831.48 611.79 L 2041.50 611.79 L 2103.49 626.49 Z" fill="#0e1c1f" opacity="0.3137360043399676"/><rect x="1932.63" y="813.96" width="11.03" height="88.22" rx="5.51" fill="#081017" opacity="0.282"/>
    <path d="M 1987.71 613.78 L 1940.95 660.08 L 1961.26 650.82 L 2013.23 650.82 L 2034.48 660.08 Z" fill="#0e1c1f" opacity="0.43015497979194334"/><path d="M 1987.71 572.11 L 1918.90 629.99 L 1946.53 620.73 L 2027.53 620.73 L 2056.53 629.99 Z" fill="#0e1c1f" opacity="0.43015497979194334"/><path d="M 1987.71 530.44 L 1900.36 599.89 L 1934.26 590.63 L 2039.42 590.63 L 2075.07 599.89 Z" fill="#0e1c1f" opacity="0.43015497979194334"/><path d="M 1987.71 488.77 L 1884.83 569.79 L 1917.72 560.53 L 2055.65 560.53 L 2090.59 569.79 Z" fill="#0e1c1f" opacity="0.43015497979194334"/><rect x="1984.24" y="687.86" width="6.95" height="55.56" rx="3.47" fill="#081017" opacity="0.387"/>
    <path d="M 2008.21 629.69 L 1958.14 681.23 L 1977.55 670.92 L 2037.88 670.92 L 2058.29 681.23 Z" fill="#0e1c1f" opacity="0.40772579191632397"/><path d="M 2008.21 583.30 L 1934.06 647.73 L 1965.73 637.42 L 2049.21 637.42 L 2082.37 647.73 Z" fill="#0e1c1f" opacity="0.40772579191632397"/><path d="M 2008.21 536.91 L 1909.02 614.22 L 1938.41 603.91 L 2076.03 603.91 L 2107.41 614.22 Z" fill="#0e1c1f" opacity="0.40772579191632397"/><path d="M 2008.21 490.51 L 1892.64 580.72 L 1931.70 570.41 L 2082.42 570.41 L 2123.79 580.72 Z" fill="#0e1c1f" opacity="0.40772579191632397"/><rect x="2004.35" y="712.16" width="7.73" height="61.85" rx="3.87" fill="#081017" opacity="0.367"/>
    <path d="M 2039.64 667.55 L 1972.70 731.57 L 2004.44 718.77 L 2073.50 718.77 L 2106.58 731.57 Z" fill="#0e1c1f" opacity="0.3543307405265005"/><path d="M 2039.64 609.92 L 1945.73 689.96 L 1979.06 677.15 L 2098.33 677.15 L 2133.55 689.96 Z" fill="#0e1c1f" opacity="0.3543307405265005"/><path d="M 2039.64 552.30 L 1924.08 648.34 L 1967.73 635.53 L 2109.23 635.53 L 2155.20 648.34 Z" fill="#0e1c1f" opacity="0.3543307405265005"/><path d="M 2039.64 494.68 L 1896.94 606.72 L 1952.84 593.92 L 2123.58 593.92 L 2182.34 606.72 Z" fill="#0e1c1f" opacity="0.3543307405265005"/><rect x="2034.84" y="769.99" width="9.60" height="76.83" rx="4.80" fill="#081017" opacity="0.319"/>
    <path d="M 2147.73 646.71 L 2090.11 703.87 L 2115.00 692.43 L 2179.30 692.43 L 2205.34 703.87 Z" fill="#0e1c1f" opacity="0.38371843187035115"/><path d="M 2147.73 595.27 L 2071.81 666.71 L 2097.78 655.28 L 2196.15 655.28 L 2223.65 666.71 Z" fill="#0e1c1f" opacity="0.38371843187035115"/><path d="M 2147.73 543.83 L 2042.40 629.56 L 2079.48 618.13 L 2213.86 618.13 L 2253.05 629.56 Z" fill="#0e1c1f" opacity="0.38371843187035115"/><path d="M 2147.73 492.39 L 2020.19 592.41 L 2072.53 580.98 L 2220.37 580.98 L 2275.26 592.41 Z" fill="#0e1c1f" opacity="0.38371843187035115"/><rect x="2143.44" y="738.16" width="8.57" height="68.59" rx="4.29" fill="#081017" opacity="0.345"/>
    <path d="M 2166.99 624.13 L 2119.06 673.84 L 2137.19 663.90 L 2195.83 663.90 L 2214.92 673.84 Z" fill="#0e1c1f" opacity="0.4155584307154495"/><path d="M 2166.99 579.39 L 2100.41 641.53 L 2118.27 631.59 L 2214.38 631.59 L 2233.57 641.53 Z" fill="#0e1c1f" opacity="0.4155584307154495"/><path d="M 2166.99 534.65 L 2071.21 609.22 L 2111.64 599.27 L 2220.43 599.27 L 2262.77 609.22 Z" fill="#0e1c1f" opacity="0.4155584307154495"/><path d="M 2166.99 489.90 L 2052.99 576.90 L 2099.06 566.96 L 2232.64 566.96 L 2280.99 576.90 Z" fill="#0e1c1f" opacity="0.4155584307154495"/><rect x="2163.26" y="703.67" width="7.46" height="59.66" rx="3.73" fill="#081017" opacity="0.374"/>
    <path d="M 2213.41 616.60 L 2170.26 663.83 L 2183.65 654.38 L 2242.31 654.38 L 2256.56 663.83 Z" fill="#0e1c1f" opacity="0.4261832101776454"/><path d="M 2213.41 574.09 L 2142.63 633.13 L 2165.78 623.68 L 2259.63 623.68 L 2284.19 633.13 Z" fill="#0e1c1f" opacity="0.4261832101776454"/><path d="M 2213.41 531.58 L 2124.67 602.43 L 2153.29 592.98 L 2271.76 592.98 L 2302.15 602.43 Z" fill="#0e1c1f" opacity="0.4261832101776454"/><path d="M 2213.41 489.08 L 2107.86 571.73 L 2150.05 562.28 L 2274.65 562.28 L 2318.96 571.73 Z" fill="#0e1c1f" opacity="0.4261832101776454"/><rect x="2209.87" y="692.17" width="7.08" height="56.68" rx="3.54" fill="#081017" opacity="0.384"/>
    <path d="M 2238.16 645.92 L 2179.21 702.82 L 2206.55 691.44 L 2268.59 691.44 L 2297.10 702.82 Z" fill="#0e1c1f" opacity="0.3848276370234708"/><path d="M 2238.16 594.71 L 2156.25 665.84 L 2188.41 654.46 L 2286.27 654.46 L 2320.07 665.84 Z" fill="#0e1c1f" opacity="0.3848276370234708"/><path d="M 2238.16 543.51 L 2132.67 628.85 L 2166.78 617.47 L 2307.43 617.47 L 2343.65 628.85 Z" fill="#0e1c1f" opacity="0.3848276370234708"/><path d="M 2238.16 492.30 L 2106.72 591.87 L 2158.93 580.49 L 2314.76 580.49 L 2369.59 591.87 Z" fill="#0e1c1f" opacity="0.3848276370234708"/><rect x="2233.89" y="736.96" width="8.53" height="68.28" rx="4.27" fill="#081017" opacity="0.346"/>
    <path d="M 2309.11 676.68 L 2244.62 743.72 L 2268.84 730.31 L 2348.08 730.31 L 2373.60 743.72 Z" fill="#0e1c1f" opacity="0.34145033653100837"/><path d="M 2309.11 616.35 L 2211.85 700.14 L 2240.48 686.74 L 2375.79 686.74 L 2406.36 700.14 Z" fill="#0e1c1f" opacity="0.34145033653100837"/><path d="M 2309.11 556.01 L 2189.34 656.57 L 2235.29 643.16 L 2380.53 643.16 L 2428.87 656.57 Z" fill="#0e1c1f" opacity="0.34145033653100837"/><path d="M 2309.11 495.68 L 2157.46 612.99 L 2213.69 599.59 L 2401.49 599.59 L 2460.75 612.99 Z" fill="#0e1c1f" opacity="0.34145033653100837"/><rect x="2304.08" y="783.94" width="10.06" height="80.45" rx="5.03" fill="#081017" opacity="0.307"/>
    <path d="M 2394.55 672.24 L 2331.22 737.81 L 2355.31 724.70 L 2432.52 724.70 L 2457.88 737.81 Z" fill="#0e1c1f" opacity="0.347716126246145"/><path d="M 2394.55 613.22 L 2299.15 695.19 L 2336.97 682.07 L 2450.22 682.07 L 2489.95 695.19 Z" fill="#0e1c1f" opacity="0.347716126246145"/><path d="M 2394.55 554.21 L 2274.31 652.57 L 2320.93 639.45 L 2465.76 639.45 L 2514.79 652.57 Z" fill="#0e1c1f" opacity="0.347716126246145"/><path d="M 2394.55 495.19 L 2248.69 609.94 L 2301.35 596.83 L 2484.83 596.83 L 2540.40 609.94 Z" fill="#0e1c1f" opacity="0.347716126246145"/><rect x="2389.63" y="777.15" width="9.84" height="78.69" rx="4.92" fill="#081017" opacity="0.313"/>
    <path d="M 2421.33 631.08 L 2373.18 683.09 L 2388.94 672.69 L 2452.75 672.69 L 2469.47 683.09 Z" fill="#0e1c1f" opacity="0.4057561896915204"/><path d="M 2421.33 584.28 L 2351.68 649.28 L 2378.48 638.88 L 2462.78 638.88 L 2490.98 649.28 Z" fill="#0e1c1f" opacity="0.4057561896915204"/><path d="M 2421.33 537.47 L 2329.68 615.48 L 2361.26 605.08 L 2479.57 605.08 L 2512.97 615.48 Z" fill="#0e1c1f" opacity="0.4057561896915204"/><path d="M 2421.33 490.67 L 2297.16 581.68 L 2336.79 571.28 L 2503.38 571.28 L 2545.50 581.68 Z" fill="#0e1c1f" opacity="0.4057561896915204"/><rect x="2417.43" y="714.29" width="7.80" height="62.41" rx="3.90" fill="#081017" opacity="0.365"/>
    <path d="M 2419.73 645.95 L 2366.07 702.85 L 2384.89 691.47 L 2453.50 691.47 L 2473.40 702.85 Z" fill="#0e1c1f" opacity="0.3847953580871981"/><path d="M 2419.73 594.73 L 2343.43 665.86 L 2370.83 654.48 L 2467.11 654.48 L 2496.04 665.86 Z" fill="#0e1c1f" opacity="0.3847953580871981"/><path d="M 2419.73 543.52 L 2310.24 628.87 L 2351.54 617.49 L 2485.74 617.49 L 2529.23 628.87 Z" fill="#0e1c1f" opacity="0.3847953580871981"/><path d="M 2419.73 492.30 L 2290.83 591.89 L 2342.41 580.50 L 2494.48 580.50 L 2548.64 591.89 Z" fill="#0e1c1f" opacity="0.3847953580871981"/><rect x="2415.47" y="736.99" width="8.54" height="68.29" rx="4.27" fill="#081017" opacity="0.346"/>
    <path d="M 2464.06 664.63 L 2399.51 727.70 L 2428.56 715.08 L 2498.28 715.08 L 2528.62 727.70 Z" fill="#0e1c1f" opacity="0.35844327075671756"/><path d="M 2464.06 607.87 L 2380.30 686.70 L 2413.78 674.09 L 2512.68 674.09 L 2547.83 686.70 Z" fill="#0e1c1f" opacity="0.35844327075671756"/><path d="M 2464.06 551.11 L 2352.25 645.71 L 2398.06 633.10 L 2527.83 633.10 L 2575.88 645.71 Z" fill="#0e1c1f" opacity="0.35844327075671756"/><path d="M 2464.06 494.36 L 2320.46 604.72 L 2376.30 592.11 L 2548.96 592.11 L 2607.67 604.72 Z" fill="#0e1c1f" opacity="0.35844327075671756"/><rect x="2459.33" y="765.54" width="9.46" height="75.68" rx="4.73" fill="#081017" opacity="0.323"/>
    <path d="M 2548.00 632.38 L 2496.19 684.82 L 2517.34 674.33 L 2577.63 674.33 L 2599.81 684.82 Z" fill="#0e1c1f" opacity="0.40392206446140155"/><path d="M 2548.00 585.19 L 2476.53 650.73 L 2507.34 640.25 L 2587.23 640.25 L 2619.47 650.73 Z" fill="#0e1c1f" opacity="0.40392206446140155"/><path d="M 2548.00 538.00 L 2450.65 616.65 L 2491.56 606.17 L 2602.50 606.17 L 2645.35 616.65 Z" fill="#0e1c1f" opacity="0.40392206446140155"/><path d="M 2548.00 490.81 L 2429.83 582.57 L 2477.82 572.08 L 2615.82 572.08 L 2666.17 582.57 Z" fill="#0e1c1f" opacity="0.40392206446140155"/><rect x="2544.07" y="716.28" width="7.87" height="62.92" rx="3.93" fill="#081017" opacity="0.364"/>
  </g>
</svg>