<?xml version="1.0" encoding="UTF-8"?>
<svg xmlns="http://www.w3.org/2000/svg" viewBox="0 0 2560 1440" preserveAspectRatio="xMidYMid slice">
  <defs>
    <filter id="layerBlur" x="-20%" y="-20%" width="140%" height="140%">
      <feGaussianBlur stdDeviation="0.9"/>
    </filter>
    <linearGradient id="fadeMask" x1="0%" y1="0%" x2="0%" y2="100%">
      <stop offset="0%" stop-color="#ffffff" stop-opacity="0"/>
      <stop offset="34%" stop-color="#ffffff" stop-opacity="0.72"/>
      <stop offset="100%" stop-color="#ffffff" stop-opacity="1"/>
    </linearGradient>
    <mask id="treeMask">
      <rect x="0" y="0" width="2560" height="1440" fill="url(#fadeMask)"/>
    </mask>
  </defs>
  <g filter="url(#layerBlur)" mask="url(#treeMask)">
    <path d="M 12.00 713.34 L -55.73 790.94 L -38.84 775.42 L 61.48 775.42 L 79.73 790.94 Z" fill="#081013" opacity="0.5214106332864612"/><path d="M 12.00 643.50 L -100.19 740.50 L -59.69 724.98 L 81.45 724.98 L 124.19 740.50 Z" fill="#081013" opacity="0.5214106332864612"/><path d="M 12.00 573.66 L -130.43 690.06 L -70.19 674.54 L 91.34 674.54 L 154.43 690.06 Z" fill="#081013" opacity="0.5214106332864612"/><path d="M 12.00 503.82 L -166.09 639.62 L -94.68 624.10 L 115.12 624.10 L 190.09 639.62 Z" fill="#081013" opacity="0.5214106332864612"/><rect x="6.18" y="837.50" width="11.64" height="93.12" rx="5.82" fill="#081017" opacity="0.469"/>
    <path d="M 88.95 775.01 L -3.19 878.39 L 22.39 857.71 L 153.67 857.71 L 181.09 878.39 Z" fill="#081013" opacity="0.41036717908643183"/><path d="M 88.95 681.97 L -59.89 811.19 L -7.61 790.51 L 182.53 790.51 L 237.79 811.19 Z" fill="#081013" opacity="0.41036717908643183"/><path d="M 88.95 588.92 L -105.63 743.99 L -36.72 723.32 L 210.73 723.32 L 283.53 743.99 Z" fill="#081013" opacity="0.41036717908643183"/><path d="M 88.95 495.88 L -156.23 676.80 L -67.23 656.12 L 240.23 656.12 L 334.13 676.80 Z" fill="#081013" opacity="0.41036717908643183"/><rect x="81.20" y="940.41" width="15.51" height="124.05" rx="7.75" fill="#081017" opacity="0.369"/>
    <path d="M 123.89 746.54 L 28.37 838.02 L 73.52 819.73 L 172.35 819.73 L 219.40 838.02 Z" fill="#081013" opacity="0.46162249550054546"/><path d="M 123.89 664.21 L 4.96 778.56 L 41.68 760.26 L 203.72 760.26 L 242.81 778.56 Z" fill="#081013" opacity="0.46162249550054546"/><path d="M 123.89 581.88 L -37.32 719.10 L 23.91 700.80 L 220.64 700.80 L 285.10 719.10 Z" fill="#081013" opacity="0.46162249550054546"/><path d="M 123.89 499.54 L -81.68 659.64 L -0.37 641.34 L 244.03 641.34 L 329.45 659.64 Z" fill="#081013" opacity="0.46162249550054546"/><rect x="117.03" y="892.91" width="13.72" height="109.78" rx="6.86" fill="#081017" opacity="0.415"/>
    <path d="M 198.52 751.61 L 117.16 845.22 L 137.00 826.50 L 258.41 826.50 L 279.89 845.22 Z" fill="#081013" opacity="0.45248764941212716"/><path d="M 198.52 667.37 L 61.47 784.38 L 118.67 765.66 L 275.64 765.66 L 335.57 784.38 Z" fill="#081013" opacity="0.45248764941212716"/><path d="M 198.52 583.13 L 23.16 723.53 L 75.54 704.81 L 318.00 704.81 L 373.89 723.53 Z" fill="#081013" opacity="0.45248764941212716"/><path d="M 198.52 498.89 L -23.51 662.69 L 44.80 643.97 L 347.80 643.97 L 420.55 662.69 Z" fill="#081013" opacity="0.45248764941212716"/><rect x="191.50" y="901.38" width="14.04" height="112.32" rx="7.02" fill="#081017" opacity="0.407"/>
    <path d="M 211.25 685.76 L 155.08 751.83 L 167.06 738.61 L 254.32 738.61 L 267.42 751.83 Z" fill="#081013" opacity="0.5710767833404242"/><path d="M 211.25 626.29 L 117.07 708.88 L 153.42 695.67 L 267.20 695.67 L 305.43 708.88 Z" fill="#081013" opacity="0.5710767833404242"/><path d="M 211.25 566.83 L 90.21 665.93 L 129.03 652.72 L 291.05 652.72 L 332.29 665.93 Z" fill="#081013" opacity="0.5710767833404242"/><path d="M 211.25 507.36 L 61.13 622.99 L 121.69 609.77 L 297.81 609.77 L 361.37 622.99 Z" fill="#081013" opacity="0.5710767833404242"/><rect x="206.29" y="791.47" width="9.91" height="79.29" rx="4.96" fill="#081017" opacity="0.514"/>
    <path d="M 295.19 772.20 L 190.92 874.41 L 237.41 853.97 L 350.87 853.97 L 399.45 874.41 Z" fill="#081013" opacity="0.41541565673568404"/><path d="M 295.19 680.22 L 155.42 807.98 L 206.03 787.53 L 381.54 787.53 L 434.95 807.98 Z" fill="#081013" opacity="0.41541565673568404"/><path d="M 295.19 588.23 L 98.11 741.54 L 169.62 721.10 L 416.81 721.10 L 492.27 741.54 Z" fill="#081013" opacity="0.41541565673568404"/><path d="M 295.19 496.24 L 65.27 675.11 L 150.30 654.66 L 435.47 654.66 L 525.10 675.11 Z" fill="#081013" opacity="0.41541565673568404"/><rect x="287.52" y="935.73" width="15.33" height="122.65" rx="7.67" fill="#081017" opacity="0.374"/>
    <path d="M 338.98 766.01 L 251.39 865.63 L 274.11 845.70 L 402.09 845.70 L 426.57 865.63 Z" fill="#081013" opacity="0.42656684935954403"/><path d="M 338.98 676.35 L 203.77 800.88 L 241.50 780.95 L 433.76 780.95 L 474.18 800.88 Z" fill="#081013" opacity="0.42656684935954403"/><path d="M 338.98 586.70 L 161.00 736.12 L 231.92 716.20 L 442.48 716.20 L 516.95 736.12 Z" fill="#081013" opacity="0.42656684935954403"/><path d="M 338.98 497.04 L 106.51 671.37 L 183.84 651.45 L 489.46 651.45 L 571.45 671.37 Z" fill="#081013" opacity="0.42656684935954403"/><rect x="331.51" y="925.40" width="14.94" height="119.54" rx="7.47" fill="#081017" opacity="0.384"/>
    <path d="M 432.86 791.66 L 322.63 902.00 L 369.07 879.94 L 494.44 879.94 L 543.09 902.00 Z" fill="#081013" opacity="0.3803746906099841"/><path d="M 432.86 692.36 L 272.40 830.28 L 336.96 808.21 L 525.55 808.21 L 593.32 830.28 Z" fill="#081013" opacity="0.3803746906099841"/><path d="M 432.86 593.05 L 233.07 758.56 L 300.89 736.49 L 560.84 736.49 L 632.65 758.56 Z" fill="#081013" opacity="0.3803746906099841"/><path d="M 432.86 493.74 L 179.26 686.84 L 277.50 664.77 L 583.15 664.77 L 686.46 686.84 Z" fill="#081013" opacity="0.3803746906099841"/><rect x="424.58" y="968.21" width="16.55" height="132.41" rx="8.28" fill="#081017" opacity="0.342"/>
    <path d="M 430.86 754.15 L 333.36 848.82 L 377.93 829.88 L 481.85 829.88 L 528.36 848.82 Z" fill="#081013" opacity="0.44791638983127635"/><path d="M 430.86 668.96 L 297.93 787.29 L 351.06 768.35 L 508.01 768.35 L 563.79 787.29 Z" fill="#081013" opacity="0.44791638983127635"/><path d="M 430.86 583.76 L 250.38 725.75 L 324.98 706.82 L 533.14 706.82 L 611.34 725.75 Z" fill="#081013" opacity="0.44791638983127635"/><path d="M 430.86 498.57 L 213.88 664.22 L 280.82 645.29 L 576.57 645.29 L 647.85 664.22 Z" fill="#081013" opacity="0.44791638983127635"/><rect x="423.76" y="905.61" width="14.20" height="113.59" rx="7.10" fill="#081017" opacity="0.403"/>
    <path d="M 480.40 775.73 L 376.54 879.42 L 420.64 858.68 L 538.09 858.68 L 584.27 879.42 Z" fill="#081013" opacity="0.4090565321154427"/><path d="M 480.40 682.42 L 338.58 812.02 L 392.16 791.29 L 565.80 791.29 L 622.23 812.02 Z" fill="#081013" opacity="0.4090565321154427"/><path d="M 480.40 589.10 L 287.27 744.63 L 366.54 723.89 L 590.41 723.89 L 673.53 744.63 Z" fill="#081013" opacity="0.4090565321154427"/><path d="M 480.40 495.79 L 248.25 677.24 L 332.34 656.50 L 623.82 656.50 L 712.55 677.24 Z" fill="#081013" opacity="0.4090565321154427"/><rect x="472.63" y="941.63" width="15.55" height="124.42" rx="7.78" fill="#081017" opacity="0.368"/>
    <path d="M 531.68 736.88 L 455.52 824.32 L 474.30 806.84 L 587.54 806.84 L 607.83 824.32 Z" fill="#081013" opacity="0.47901710129925046"/><path d="M 531.68 658.18 L 406.62 767.49 L 457.13 750.00 L 603.73 750.00 L 656.73 767.49 Z" fill="#081013" opacity="0.47901710129925046"/><path d="M 531.68 579.49 L 370.21 710.65 L 428.58 693.16 L 631.55 693.16 L 693.14 710.65 Z" fill="#081013" opacity="0.47901710129925046"/><path d="M 531.68 500.79 L 327.23 653.81 L 399.81 636.32 L 659.46 636.32 L 736.13 653.81 Z" fill="#081013" opacity="0.47901710129925046"/><rect x="525.12" y="876.79" width="13.12" height="104.93" rx="6.56" fill="#081017" opacity="0.431"/>
    <path d="M 638.48 740.53 L 550.87 829.49 L 586.27 811.70 L 688.93 811.70 L 726.08 829.49 Z" fill="#081013" opacity="0.4724550194130861"/><path d="M 638.48 660.46 L 515.41 771.66 L 566.78 753.87 L 707.71 753.87 L 761.54 771.66 Z" fill="#081013" opacity="0.4724550194130861"/><path d="M 638.48 580.39 L 476.02 713.84 L 526.29 696.04 L 747.41 696.04 L 800.93 713.84 Z" fill="#081013" opacity="0.4724550194130861"/><path d="M 638.48 500.32 L 436.00 656.01 L 505.43 638.22 L 767.47 638.22 L 840.95 656.01 Z" fill="#081013" opacity="0.4724550194130861"/><rect x="631.80" y="882.87" width="13.34" height="106.76" rx="6.67" fill="#081017" opacity="0.425"/>
    <path d="M 664.20 683.06 L 596.18 748.00 L 628.56 735.01 L 698.47 735.01 L 732.21 748.00 Z" fill="#081013" opacity="0.575932274336461"/><path d="M 664.20 624.61 L 574.39 705.79 L 611.92 692.80 L 714.68 692.80 L 754.00 705.79 Z" fill="#081013" opacity="0.575932274336461"/><path d="M 664.20 566.16 L 540.53 663.58 L 590.97 650.59 L 734.95 650.59 L 787.86 663.58 Z" fill="#081013" opacity="0.575932274336461"/><path d="M 664.20 507.71 L 517.38 621.36 L 574.67 608.37 L 750.78 608.37 L 811.01 621.36 Z" fill="#081013" opacity="0.575932274336461"/><rect x="659.32" y="786.97" width="9.74" height="77.93" rx="4.87" fill="#081017" opacity="0.518"/>
    <path d="M 773.49 721.98 L 702.24 803.19 L 720.51 786.95 L 825.04 786.95 L 844.74 803.19 Z" fill="#081013" opacity="0.505851679940708"/><path d="M 773.49 648.89 L 662.87 750.40 L 694.06 734.16 L 850.70 734.16 L 884.11 750.40 Z" fill="#081013" opacity="0.505851679940708"/><path d="M 773.49 575.80 L 623.70 697.61 L 678.25 681.37 L 865.73 681.37 L 923.28 697.61 Z" fill="#081013" opacity="0.505851679940708"/><path d="M 773.49 502.70 L 591.14 644.83 L 661.36 628.58 L 881.98 628.58 L 955.84 644.83 Z" fill="#081013" opacity="0.505851679940708"/><rect x="767.40" y="851.92" width="12.18" height="97.46" rx="6.09" fill="#081017" opacity="0.455"/>
    <path d="M 840.10 718.24 L 766.80 797.89 L 790.22 781.96 L 888.51 781.96 L 913.39 797.89 Z" fill="#081013" opacity="0.512584770864807"/><path d="M 840.10 646.55 L 732.17 746.12 L 767.74 730.19 L 910.29 730.19 L 948.02 746.12 Z" fill="#081013" opacity="0.512584770864807"/><path d="M 840.10 574.87 L 697.39 694.34 L 748.33 678.41 L 929.01 678.41 L 982.80 694.34 Z" fill="#081013" opacity="0.512584770864807"/><path d="M 840.10 503.18 L 661.98 642.57 L 718.97 626.64 L 957.66 626.64 L 1018.21 642.57 Z" fill="#081013" opacity="0.512584770864807"/><rect x="834.12" y="845.68" width="11.95" height="95.58" rx="5.97" fill="#081017" opacity="0.461"/>
    <path d="M 865.52 770.56 L 768.66 872.08 L 804.05 851.77 L 925.05 851.77 L 962.38 872.08 Z" fill="#081013" opacity="0.4183778363732854"/><path d="M 865.52 679.19 L 719.78 806.09 L 765.19 785.79 L 962.94 785.79 L 1011.26 806.09 Z" fill="#081013" opacity="0.4183778363732854"/><path d="M 865.52 587.82 L 674.05 740.10 L 753.03 719.80 L 974.18 719.80 L 1056.99 740.10 Z" fill="#081013" opacity="0.4183778363732854"/><path d="M 865.52 496.46 L 635.33 674.11 L 712.78 653.81 L 1013.66 653.81 L 1095.71 674.11 Z" fill="#081013" opacity="0.4183778363732854"/><rect x="857.91" y="932.99" width="15.23" height="121.82" rx="7.61" fill="#081017" opacity="0.377"/>
    <path d="M 920.26 742.70 L 832.71 832.57 L 866.94 814.60 L 971.83 814.60 L 1007.81 832.57 Z" fill="#081013" opacity="0.4685426216372288"/><path d="M 920.26 661.81 L 786.03 774.15 L 841.51 756.18 L 996.33 756.18 L 1054.50 774.15 Z" fill="#081013" opacity="0.4685426216372288"/><path d="M 920.26 580.93 L 757.67 715.74 L 816.19 697.76 L 1021.07 697.76 L 1082.85 715.74 Z" fill="#081013" opacity="0.4685426216372288"/><path d="M 920.26 500.04 L 717.58 657.32 L 795.29 639.34 L 1041.18 639.34 L 1122.94 657.32 Z" fill="#081013" opacity="0.4685426216372288"/><rect x="913.52" y="886.50" width="13.48" height="107.85" rx="6.74" fill="#081017" opacity="0.422"/>
    <path d="M 959.25 744.17 L 870.41 834.66 L 905.99 816.57 L 1010.74 816.57 L 1048.10 834.66 Z" fill="#081013" opacity="0.46588806095975444"/><path d="M 959.25 662.73 L 825.45 775.84 L 867.77 757.75 L 1048.06 757.75 L 1093.06 775.84 Z" fill="#081013" opacity="0.46588806095975444"/><path d="M 959.25 581.29 L 799.53 717.03 L 852.22 698.93 L 1063.09 698.93 L 1118.98 717.03 Z" fill="#081013" opacity="0.46588806095975444"/><path d="M 959.25 499.85 L 744.55 658.21 L 824.58 640.11 L 1089.63 640.11 L 1173.96 658.21 Z" fill="#081013" opacity="0.46588806095975444"/><rect x="952.47" y="888.96" width="13.57" height="108.59" rx="6.79" fill="#081017" opacity="0.419"/>
    <path d="M 1056.44 732.59 L 980.62 818.25 L 1000.99 801.12 L 1110.38 801.12 L 1132.27 818.25 Z" fill="#081013" opacity="0.4867358610467054"/><path d="M 1056.44 655.51 L 934.57 762.57 L 989.05 745.44 L 1121.39 745.44 L 1178.32 762.57 Z" fill="#081013" opacity="0.4867358610467054"/><path d="M 1056.44 578.42 L 897.00 706.90 L 957.80 689.77 L 1151.90 689.77 L 1215.88 706.90 Z" fill="#081013" opacity="0.4867358610467054"/><path d="M 1056.44 501.34 L 854.95 651.23 L 936.44 634.10 L 1172.41 634.10 L 1257.93 651.23 Z" fill="#081013" opacity="0.4867358610467054"/><rect x="1050.02" y="869.64" width="12.85" height="102.78" rx="6.42" fill="#081017" opacity="0.438"/>
    <path d="M 1057.85 793.68 L 961.17 904.87 L 984.79 882.63 L 1128.98 882.63 L 1154.53 904.87 Z" fill="#081013" opacity="0.37673750867322087"/><path d="M 1057.85 693.62 L 909.13 832.60 L 951.86 810.36 L 1160.87 810.36 L 1206.57 832.60 Z" fill="#081013" opacity="0.37673750867322087"/><path d="M 1057.85 593.55 L 851.80 760.33 L 930.11 738.09 L 1181.47 738.09 L 1263.91 760.33 Z" fill="#081013" opacity="0.37673750867322087"/><path d="M 1057.85 493.48 L 793.52 688.06 L 887.29 665.82 L 1223.12 665.82 L 1322.18 688.06 Z" fill="#081013" opacity="0.37673750867322087"/><rect x="1049.51" y="971.58" width="16.68" height="133.42" rx="8.34" fill="#081017" opacity="0.339"/>
    <path d="M 1154.00 708.65 L 1085.46 784.30 L 1105.99 769.17 L 1200.65 769.17 L 1222.54 784.30 Z" fill="#081013" opacity="0.5298446912908694"/><path d="M 1154.00 640.58 L 1045.66 735.13 L 1084.90 720.00 L 1220.93 720.00 L 1262.34 735.13 Z" fill="#081013" opacity="0.5298446912908694"/><path d="M 1154.00 572.50 L 1009.14 685.96 L 1053.03 670.83 L 1252.07 670.83 L 1298.86 685.96 Z" fill="#081013" opacity="0.5298446912908694"/><path d="M 1154.00 504.42 L 979.78 636.79 L 1045.23 621.66 L 1259.29 621.66 L 1328.22 636.79 Z" fill="#081013" opacity="0.5298446912908694"/><rect x="1148.33" y="829.68" width="11.35" height="90.77" rx="5.67" fill="#081017" opacity="0.477"/>
    <path d="M 1184.14 721.50 L 1110.87 802.51 L 1132.63 786.31 L 1234.18 786.31 L 1257.41 802.51 Z" fill="#081013" opacity="0.5067189544765278"/><path d="M 1184.14 648.59 L 1072.04 749.85 L 1115.45 733.65 L 1250.59 733.65 L 1296.24 749.85 Z" fill="#081013" opacity="0.5067189544765278"/><path d="M 1184.14 575.68 L 1038.42 697.19 L 1085.90 680.99 L 1279.47 680.99 L 1329.86 697.19 Z" fill="#081013" opacity="0.5067189544765278"/><path d="M 1184.14 502.77 L 1004.23 644.54 L 1074.86 628.33 L 1289.82 628.33 L 1364.05 644.54 Z" fill="#081013" opacity="0.5067189544765278"/><rect x="1178.06" y="851.12" width="12.15" height="97.21" rx="6.08" fill="#081017" opacity="0.456"/>
    <path d="M 1285.92 791.72 L 1170.63 902.08 L 1225.19 880.01 L 1344.35 880.01 L 1401.21 902.08 Z" fill="#081013" opacity="0.38027549715084025"/><path d="M 1285.92 692.39 L 1138.22 830.35 L 1202.81 808.27 L 1366.08 808.27 L 1433.62 830.35 Z" fill="#081013" opacity="0.38027549715084025"/><path d="M 1285.92 593.06 L 1080.97 758.61 L 1164.95 736.54 L 1402.79 736.54 L 1490.87 758.61 Z" fill="#081013" opacity="0.38027549715084025"/><path d="M 1285.92 493.73 L 1027.20 686.87 L 1131.72 664.80 L 1434.95 664.80 L 1544.64 686.87 Z" fill="#081013" opacity="0.38027549715084025"/><rect x="1277.64" y="968.30" width="16.55" height="132.44" rx="8.28" fill="#081017" opacity="0.342"/>
    <path d="M 1270.87 730.78 L 1191.78 815.67 L 1218.32 798.69 L 1321.85 798.69 L 1349.97 815.67 Z" fill="#081013" opacity="0.4900106255690334"/><path d="M 1270.87 654.37 L 1154.72 760.49 L 1207.02 743.51 L 1332.41 743.51 L 1387.02 760.49 Z" fill="#081013" opacity="0.4900106255690334"/><path d="M 1270.87 577.97 L 1107.55 705.31 L 1160.75 688.33 L 1377.73 688.33 L 1434.20 705.31 Z" fill="#081013" opacity="0.4900106255690334"/><path d="M 1270.87 501.57 L 1083.87 650.13 L 1142.89 633.15 L 1395.12 633.15 L 1457.88 650.13 Z" fill="#081013" opacity="0.4900106255690334"/><rect x="1264.51" y="866.60" width="12.73" height="101.87" rx="6.37" fill="#081017" opacity="0.441"/>
    <path d="M 1363.14 797.63 L 1266.96 910.47 L 1287.82 887.90 L 1436.54 887.90 L 1459.33 910.47 Z" fill="#081013" opacity="0.3696290783552686"/><path d="M 1363.14 696.08 L 1215.04 837.12 L 1277.07 814.56 L 1446.26 814.56 L 1511.25 837.12 Z" fill="#081013" opacity="0.3696290783552686"/><path d="M 1363.14 594.53 L 1147.27 763.78 L 1223.32 741.21 L 1498.65 741.21 L 1579.02 763.78 Z" fill="#081013" opacity="0.3696290783552686"/><path d="M 1363.14 492.97 L 1111.21 690.44 L 1193.86 667.87 L 1527.39 667.87 L 1615.08 690.44 Z" fill="#081013" opacity="0.3696290783552686"/><rect x="1354.68" y="978.17" width="16.93" height="135.40" rx="8.46" fill="#081017" opacity="0.333"/>
    <path d="M 1373.89 715.23 L 1301.47 793.63 L 1324.97 777.95 L 1421.36 777.95 L 1446.31 793.63 Z" fill="#081013" opacity="0.5179983729568776"/><path d="M 1373.89 644.68 L 1269.71 742.67 L 1298.10 726.99 L 1447.60 726.99 L 1478.07 742.67 Z" fill="#081013" opacity="0.5179983729568776"/><path d="M 1373.89 574.13 L 1234.90 691.72 L 1286.48 676.04 L 1458.52 676.04 L 1512.89 691.72 Z" fill="#081013" opacity="0.5179983729568776"/><path d="M 1373.89 503.57 L 1195.05 640.76 L 1264.11 625.08 L 1480.10 625.08 L 1552.73 640.76 Z" fill="#081013" opacity="0.5179983729568776"/><rect x="1368.01" y="840.66" width="11.76" height="94.07" rx="5.88" fill="#081017" opacity="0.466"/>
    <path d="M 1476.47 696.86 L 1416.36 767.58 L 1429.16 753.43 L 1522.57 753.43 L 1536.58 767.58 Z" fill="#081013" opacity="0.5510788509099511"/><path d="M 1476.47 633.22 L 1381.39 721.61 L 1406.85 707.47 L 1544.19 707.47 L 1571.54 721.61 Z" fill="#081013" opacity="0.5510788509099511"/><path d="M 1476.47 569.58 L 1349.66 675.65 L 1398.45 661.50 L 1551.95 661.50 L 1603.28 675.65 Z" fill="#081013" opacity="0.5510788509099511"/><path d="M 1476.47 505.93 L 1312.34 629.68 L 1379.44 615.54 L 1570.21 615.54 L 1640.59 629.68 Z" fill="#081013" opacity="0.5510788509099511"/><rect x="1471.16" y="810.00" width="10.61" height="84.86" rx="5.30" fill="#081017" opacity="0.496"/>
    <path d="M 1526.07 770.20 L 1434.64 871.57 L 1461.47 851.29 L 1588.84 851.29 L 1617.51 871.57 Z" fill="#081013" opacity="0.41902461122174284"/><path d="M 1526.07 678.97 L 1378.51 805.68 L 1432.26 785.40 L 1616.93 785.40 L 1673.63 805.68 Z" fill="#081013" opacity="0.41902461122174284"/><path d="M 1526.07 587.73 L 1338.29 739.79 L 1407.15 719.51 L 1641.24 719.51 L 1713.85 739.79 Z" fill="#081013" opacity="0.41902461122174284"/><path d="M 1526.07 496.50 L 1293.89 673.90 L 1374.77 653.62 L 1672.73 653.62 L 1758.25 673.90 Z" fill="#081013" opacity="0.41902461122174284"/><rect x="1518.47" y="932.39" width="15.21" height="121.64" rx="7.60" fill="#081017" opacity="0.377"/>
    <path d="M 1587.28 710.98 L 1515.10 787.59 L 1540.33 772.27 L 1632.79 772.27 L 1659.46 787.59 Z" fill="#081013" opacity="0.5256592520407866"/><path d="M 1587.28 642.03 L 1482.68 737.79 L 1512.53 722.47 L 1659.94 722.47 L 1691.88 737.79 Z" fill="#081013" opacity="0.5256592520407866"/><path d="M 1587.28 573.07 L 1441.77 687.99 L 1494.80 672.67 L 1676.86 672.67 L 1732.79 687.99 Z" fill="#081013" opacity="0.5256592520407866"/><path d="M 1587.28 504.12 L 1404.94 638.19 L 1478.77 622.87 L 1692.15 622.87 L 1769.62 638.19 Z" fill="#081013" opacity="0.5256592520407866"/><rect x="1581.54" y="833.56" width="11.49" height="91.94" rx="5.75" fill="#081017" opacity="0.473"/>
    <path d="M 1635.36 687.55 L 1573.09 754.37 L 1594.00 741.00 L 1675.48 741.00 L 1697.64 754.37 Z" fill="#081013" opacity="0.5678491297138388"/><path d="M 1635.36 627.41 L 1547.89 710.94 L 1584.28 697.57 L 1684.69 697.57 L 1722.83 710.94 Z" fill="#081013" opacity="0.5678491297138388"/><path d="M 1635.36 567.27 L 1505.44 667.50 L 1548.90 654.14 L 1719.22 654.14 L 1765.28 667.50 Z" fill="#081013" opacity="0.5678491297138388"/><path d="M 1635.36 507.13 L 1486.45 624.07 L 1535.29 610.70 L 1732.46 610.70 L 1784.27 624.07 Z" fill="#081013" opacity="0.5678491297138388"/><rect x="1630.35" y="794.46" width="10.02" height="80.18" rx="5.01" fill="#081017" opacity="0.511"/>
    <path d="M 1715.25 798.06 L 1607.03 911.08 L 1647.06 888.48 L 1781.28 888.48 L 1823.48 911.08 Z" fill="#081013" opacity="0.3688482133105681"/><path d="M 1715.25 696.35 L 1545.99 837.62 L 1604.94 815.02 L 1822.18 815.02 L 1884.52 837.62 Z" fill="#081013" opacity="0.3688482133105681"/><path d="M 1715.25 594.63 L 1508.21 764.16 L 1588.97 741.56 L 1837.39 741.56 L 1922.30 764.16 Z" fill="#081013" opacity="0.3688482133105681"/><path d="M 1715.25 492.92 L 1453.75 690.70 L 1544.00 668.09 L 1881.27 668.09 L 1976.76 690.70 Z" fill="#081013" opacity="0.3688482133105681"/><rect x="1706.78" y="978.89" width="16.95" height="135.62" rx="8.48" fill="#081017" opacity="0.332"/>
    <path d="M 1756.99 795.01 L 1653.22 906.75 L 1687.60 884.40 L 1824.31 884.40 L 1860.76 906.75 Z" fill="#081013" opacity="0.3743483915082179"/><path d="M 1756.99 694.44 L 1604.23 834.12 L 1666.00 811.77 L 1844.93 811.77 L 1909.76 834.12 Z" fill="#081013" opacity="0.3743483915082179"/><path d="M 1756.99 593.88 L 1557.91 761.49 L 1633.74 739.14 L 1876.26 739.14 L 1956.08 761.49 Z" fill="#081013" opacity="0.3743483915082179"/><path d="M 1756.99 493.31 L 1499.80 688.86 L 1584.88 666.51 L 1923.96 666.51 L 2014.18 688.86 Z" fill="#081013" opacity="0.3743483915082179"/><rect x="1748.61" y="973.79" width="16.76" height="134.09" rx="8.38" fill="#081017" opacity="0.337"/>
    <path d="M 1810.04 804.24 L 1698.99 919.85 L 1740.50 896.73 L 1877.36 896.73 L 1921.09 919.85 Z" fill="#081013" opacity="0.35772029192047194"/><path d="M 1810.04 700.20 L 1637.14 844.70 L 1709.24 821.58 L 1907.38 821.58 L 1982.94 844.70 Z" fill="#081013" opacity="0.35772029192047194"/><path d="M 1810.04 596.16 L 1590.34 769.56 L 1661.75 746.44 L 1953.93 746.44 L 2029.74 769.56 Z" fill="#081013" opacity="0.35772029192047194"/><path d="M 1810.04 492.12 L 1539.86 694.42 L 1637.42 671.30 L 1977.26 671.30 L 2080.22 694.42 Z" fill="#081013" opacity="0.35772029192047194"/><rect x="1801.37" y="989.21" width="17.34" height="138.72" rx="8.67" fill="#081017" opacity="0.322"/>
    <path d="M 1860.85 756.06 L 1778.83 851.53 L 1797.52 832.43 L 1922.53 832.43 L 1942.87 851.53 Z" fill="#081013" opacity="0.4444751317492628"/><path d="M 1860.85 670.15 L 1734.67 789.48 L 1768.63 770.38 L 1950.55 770.38 L 1987.03 789.48 Z" fill="#081013" opacity="0.4444751317492628"/><path d="M 1860.85 584.23 L 1693.11 727.43 L 1747.01 708.33 L 1971.33 708.33 L 2028.58 727.43 Z" fill="#081013" opacity="0.4444751317492628"/><path d="M 1860.85 498.32 L 1641.89 665.38 L 1732.64 646.28 L 1984.67 646.28 L 2079.81 665.38 Z" fill="#081013" opacity="0.4444751317492628"/><rect x="1853.69" y="908.80" width="14.32" height="114.55" rx="7.16" fill="#081017" opacity="0.400"/>
    <path d="M 1915.78 770.88 L 1822.22 872.54 L 1852.13 852.21 L 1977.55 852.21 L 2009.34 872.54 Z" fill="#081013" opacity="0.4177898253710009"/><path d="M 1915.78 679.39 L 1766.02 806.46 L 1828.44 786.13 L 2000.12 786.13 L 2065.53 806.46 Z" fill="#081013" opacity="0.4177898253710009"/><path d="M 1915.78 587.90 L 1723.07 740.39 L 1790.62 720.06 L 2037.08 720.06 L 2108.48 740.39 Z" fill="#081013" opacity="0.4177898253710009"/><path d="M 1915.78 496.41 L 1680.58 674.31 L 1764.05 653.98 L 2062.80 653.98 L 2150.97 674.31 Z" fill="#081013" opacity="0.4177898253710009"/><rect x="1908.15" y="933.53" width="15.25" height="121.99" rx="7.62" fill="#081017" opacity="0.376"/>
    <path d="M 1966.94 771.31 L 1878.38 873.15 L 1900.03 852.78 L 2032.08 852.78 L 2055.50 873.15 Z" fill="#081013" opacity="0.41701594306738116"/><path d="M 1966.94 679.66 L 1824.14 806.96 L 1883.04 786.59 L 2047.98 786.59 L 2109.73 806.96 Z" fill="#081013" opacity="0.41701594306738116"/><path d="M 1966.94 588.01 L 1773.70 740.76 L 1853.65 720.40 L 2076.35 720.40 L 2160.17 740.76 Z" fill="#081013" opacity="0.41701594306738116"/><path d="M 1966.94 496.36 L 1732.97 674.57 L 1825.22 654.20 L 2103.98 654.20 L 2200.91 674.57 Z" fill="#081013" opacity="0.41701594306738116"/><rect x="1959.30" y="934.25" width="15.28" height="122.20" rx="7.64" fill="#081017" opacity="0.375"/>
    <path d="M 2024.62 726.09 L 1939.08 809.02 L 1978.32 792.43 L 2069.21 792.43 L 2110.17 809.02 Z" fill="#081013" opacity="0.498452974593034"/><path d="M 2024.62 651.45 L 1915.47 755.11 L 1956.33 738.53 L 2090.73 738.53 L 2133.77 755.11 Z" fill="#081013" opacity="0.498452974593034"/><path d="M 2024.62 576.81 L 1865.43 701.21 L 1912.53 684.62 L 2133.52 684.62 L 2183.82 701.21 Z" fill="#081013" opacity="0.498452974593034"/><path d="M 2024.62 502.18 L 1831.85 647.30 L 1902.06 630.72 L 2143.32 630.72 L 2217.40 647.30 Z" fill="#081013" opacity="0.498452974593034"/><rect x="2018.40" y="858.78" width="12.44" height="99.52" rx="6.22" fill="#081017" opacity="0.449"/>
    <path d="M 2112.63 739.76 L 2023.33 828.41 L 2061.84 810.68 L 2161.64 810.68 L 2201.93 828.41 Z" fill="#081013" opacity="0.47382872307894286"/><path d="M 2112.63 659.98 L 1995.77 770.79 L 2026.98 753.06 L 2195.95 753.06 L 2229.50 770.79 Z" fill="#081013" opacity="0.47382872307894286"/><path d="M 2112.63 580.20 L 1955.63 713.17 L 2017.52 695.44 L 2204.61 695.44 L 2269.64 713.17 Z" fill="#081013" opacity="0.47382872307894286"/><path d="M 2112.63 500.42 L 1906.72 655.55 L 1973.46 637.82 L 2247.69 637.82 L 2318.55 655.55 Z" fill="#081013" opacity="0.47382872307894286"/><rect x="2105.99" y="881.60" width="13.30" height="106.38" rx="6.65" fill="#081017" opacity="0.426"/>
    <path d="M 2143.11 685.10 L 2082.14 750.89 L 2102.18 737.74 L 2182.83 737.74 L 2204.09 750.89 Z" fill="#081013" opacity="0.5722611042382195"/><path d="M 2143.11 625.88 L 2045.04 708.13 L 2075.38 694.97 L 2208.89 694.97 L 2241.19 708.13 Z" fill="#081013" opacity="0.5722611042382195"/><path d="M 2143.11 566.66 L 2026.79 665.36 L 2062.93 652.20 L 2220.97 652.20 L 2259.44 665.36 Z" fill="#081013" opacity="0.5722611042382195"/><path d="M 2143.11 507.45 L 1992.07 622.59 L 2051.57 609.43 L 2231.64 609.43 L 2294.15 622.59 Z" fill="#081013" opacity="0.5722611042382195"/><rect x="2138.18" y="790.37" width="9.87" height="78.96" rx="4.93" fill="#081017" opacity="0.515"/>
    <path d="M 2179.48 742.51 L 2098.55 832.31 L 2122.21 814.35 L 2235.13 814.35 L 2260.41 832.31 Z" fill="#081013" opacity="0.4688739389443071"/><path d="M 2179.48 661.70 L 2053.61 773.94 L 2092.27 755.98 L 2264.18 755.98 L 2305.36 773.94 Z" fill="#081013" opacity="0.4688739389443071"/><path d="M 2179.48 580.88 L 2006.57 715.58 L 2063.68 697.62 L 2291.83 697.62 L 2352.40 715.58 Z" fill="#081013" opacity="0.4688739389443071"/><path d="M 2179.48 500.06 L 1969.23 657.21 L 2048.11 639.25 L 2306.65 639.25 L 2389.73 657.21 Z" fill="#081013" opacity="0.4688739389443071"/><rect x="2172.75" y="886.19" width="13.47" height="107.76" rx="6.73" fill="#081017" opacity="0.422"/>
    <path d="M 2274.12 711.66 L 2207.80 788.55 L 2223.26 773.17 L 2323.65 773.17 L 2340.44 788.55 Z" fill="#081013" opacity="0.5244409800426801"/><path d="M 2274.12 642.45 L 2161.29 738.57 L 2196.36 723.19 L 2349.62 723.19 L 2386.95 738.57 Z" fill="#081013" opacity="0.5244409800426801"/><path d="M 2274.12 573.24 L 2128.90 688.59 L 2172.54 673.21 L 2372.79 673.21 L 2419.33 688.59 Z" fill="#081013" opacity="0.5244409800426801"/><path d="M 2274.12 504.03 L 2092.31 638.60 L 2152.54 623.22 L 2392.06 623.22 L 2455.93 638.60 Z" fill="#081013" opacity="0.5244409800426801"/><rect x="2268.35" y="834.69" width="11.53" height="92.28" rx="5.77" fill="#081017" opacity="0.472"/>
    <path d="M 2320.82 797.19 L 2219.55 909.85 L 2248.81 887.32 L 2390.80 887.32 L 2422.08 909.85 Z" fill="#081013" opacity="0.3704179612768348"/><path d="M 2320.82 695.81 L 2159.56 836.62 L 2209.25 814.09 L 2429.16 814.09 L 2482.07 836.62 Z" fill="#081013" opacity="0.3704179612768348"/><path d="M 2320.82 594.42 L 2102.63 763.40 L 2179.98 740.87 L 2457.29 740.87 L 2539.00 763.40 Z" fill="#081013" opacity="0.3704179612768348"/><path d="M 2320.82 493.03 L 2060.30 690.17 L 2160.91 667.64 L 2475.51 667.64 L 2581.34 690.17 Z" fill="#081013" opacity="0.3704179612768348"/><rect x="2312.37" y="977.44" width="16.90" height="135.18" rx="8.45" fill="#081017" opacity="0.333"/>
    <path d="M 2361.57 782.80 L 2258.47 889.43 L 2297.83 868.10 L 2423.24 868.10 L 2464.66 889.43 Z" fill="#081013" opacity="0.3963432790399529"/><path d="M 2361.57 686.82 L 2218.23 820.12 L 2263.23 798.79 L 2457.04 798.79 L 2504.90 820.12 Z" fill="#081013" opacity="0.3963432790399529"/><path d="M 2361.57 590.85 L 2160.32 750.80 L 2238.52 729.48 L 2480.59 729.48 L 2562.81 750.80 Z" fill="#081013" opacity="0.3963432790399529"/><path d="M 2361.57 494.88 L 2121.74 681.49 L 2206.85 660.17 L 2511.48 660.17 L 2601.39 681.49 Z" fill="#081013" opacity="0.3963432790399529"/><rect x="2353.57" y="953.41" width="16.00" height="127.96" rx="8.00" fill="#081017" opacity="0.357"/>
    <path d="M 2419.14 688.75 L 2351.14 756.08 L 2380.67 742.61 L 2456.24 742.61 L 2487.13 756.08 Z" fill="#081013" opacity="0.565679970606463"/><path d="M 2419.14 628.16 L 2319.08 712.32 L 2359.25 698.85 L 2477.02 698.85 L 2519.19 712.32 Z" fill="#081013" opacity="0.565679970606463"/><path d="M 2419.14 567.57 L 2292.11 668.56 L 2341.41 655.09 L 2494.32 655.09 L 2546.16 668.56 Z" fill="#081013" opacity="0.565679970606463"/><path d="M 2419.14 506.98 L 2269.54 624.79 L 2317.36 611.33 L 2517.92 611.33 L 2568.73 624.79 Z" fill="#081013" opacity="0.565679970606463"/><rect x="2414.09" y="796.47" width="10.10" height="80.79" rx="5.05" fill="#081017" opacity="0.509"/>
    <path d="M 2448.11 706.87 L 2375.34 781.77 L 2403.55 766.79 L 2491.21 766.79 L 2520.87 781.77 Z" fill="#081013" opacity="0.5330556973328349"/><path d="M 2448.11 639.46 L 2340.35 733.09 L 2386.38 718.11 L 2507.68 718.11 L 2555.86 733.09 Z" fill="#081013" opacity="0.5330556973328349"/><path d="M 2448.11 572.05 L 2303.97 684.40 L 2346.68 669.42 L 2546.65 669.42 L 2592.25 684.40 Z" fill="#081013" opacity="0.5330556973328349"/><path d="M 2448.11 504.65 L 2280.17 635.72 L 2336.92 620.74 L 2555.93 620.74 L 2616.04 635.72 Z" fill="#081013" opacity="0.5330556973328349"/><rect x="2442.49" y="826.71" width="11.23" height="89.88" rx="5.62" fill="#081017" opacity="0.480"/>
    <path d="M 2488.11 750.00 L 2390.96 842.93 L 2437.02 824.34 L 2537.26 824.34 L 2585.26 842.93 Z" fill="#081013" opacity="0.4553901680385461"/><path d="M 2488.11 666.37 L 2351.82 782.53 L 2400.20 763.94 L 2573.30 763.94 L 2624.41 782.53 Z" fill="#081013" opacity="0.4553901680385461"/><path d="M 2488.11 582.73 L 2320.39 722.12 L 2383.75 703.54 L 2589.12 703.54 L 2655.84 722.12 Z" fill="#081013" opacity="0.4553901680385461"/><path d="M 2488.11 499.10 L 2281.00 661.72 L 2362.14 643.14 L 2609.95 643.14 L 2695.22 661.72 Z" fill="#081013" opacity="0.4553901680385461"/><rect x="2481.14" y="898.69" width="13.94" height="111.51" rx="6.97" fill="#081017" opacity="0.410"/>
  </g>
</svg>