<?xml version="1.0" encoding="UTF-8"?>
<svg xmlns="http://www.w3.org/2000/svg" viewBox="0 0 2560 1440" preserveAspectRatio="xMidYMid slice">
  <defs>
    <linearGradient id="sky" x1="0%" y1="0%" x2="0%" y2="100%">
      <stop offset="0%" stop-color="#21354a"/>
      <stop offset="30%" stop-color="#15273e"/>
      <stop offset="58%" stop-color="#0d1a2a"/>
      <stop offset="100%" stop-color="#050b14"/>
    </linearGradient>

    <radialGradient id="moonGlow" cx="34%" cy="19%" r="62%">
      <stop offset="0%" stop-color="#c2d8e4" stop-opacity="0.36"/>
      <stop offset="34%" stop-color="#94b2c7" stop-opacity="0.16"/>
      <stop offset="100%" stop-color="#000" stop-opacity="0"/>
    </radialGradient>

    <filter id="blurSoft" x="-20%" y="-20%" width="140%" height="140%">
      <feGaussianBlur stdDeviation="24"/>
    </filter>

    <filter id="blurWide" x="-20%" y="-20%" width="140%" height="140%">
      <feGaussianBlur stdDeviation="36"/>
    </filter>

    <filter id="grain" x="-20%" y="-20%" width="140%" height="140%">
      <feTurbulence type="fractalNoise" baseFrequency="0.72" numOctaves="2" seed="13" stitchTiles="stitch"/>
      <feColorMatrix type="matrix" values="0 0 0 0 0  0 0 0 0 0  0 0 0 0 0  0 0 0 .1 0"/>
    </filter>
  </defs>

  <rect width="2560" height="1440" fill="url(#sky)"/>
  <rect width="2560" height="1440" fill="url(#moonGlow)"/>

  <g filter="url(#blurSoft)">
    <ellipse cx="1045.4" cy="337.2" rx="217.3" ry="76.9" fill="#a7c2d5" opacity="0.045"/>
    <ellipse cx="2187.3" cy="252.8" rx="144.2" ry="105.6" fill="#a7c2d5" opacity="0.061"/>
    <ellipse cx="1498.2" cy="463.9" rx="308.0" ry="144.5" fill="#a7c2d5" opacity="0.070"/>
    <ellipse cx="1766.6" cy="325.9" rx="353.0" ry="64.8" fill="#a7c2d5" opacity="0.043"/>
    <ellipse cx="2114.2" cy="334.4" rx="304.4" ry="146.1" fill="#a7c2d5" opacity="0.072"/>
    <ellipse cx="1339.1" cy="431.5" rx="364.6" ry="129.3" fill="#a7c2d5" opacity="0.057"/>
    <ellipse cx="852.6" cy="516.2" rx="317.5" ry="109.8" fill="#a7c2d5" opacity="0.059"/>
    <ellipse cx="1555.4" cy="174.6" rx="159.8" ry="57.4" fill="#a7c2d5" opacity="0.047"/>
    <ellipse cx="2139.5" cy="620.3" rx="255.8" ry="137.4" fill="#a7c2d5" opacity="0.037"/>
    <ellipse cx="1631.5" cy="265.4" rx="188.1" ry="64.8" fill="#a7c2d5" opacity="0.054"/>
    <ellipse cx="1873.6" cy="283.4" rx="373.9" ry="62.1" fill="#a7c2d5" opacity="0.053"/>
    <ellipse cx="1520.5" cy="240.9" rx="194.3" ry="84.8" fill="#a7c2d5" opacity="0.061"/>
    <ellipse cx="1565.3" cy="534.2" rx="359.1" ry="132.0" fill="#a7c2d5" opacity="0.072"/>
    <ellipse cx="798.7" cy="549.2" rx="366.6" ry="149.8" fill="#a7c2d5" opacity="0.068"/>
    <ellipse cx="735.8" cy="561.1" rx="339.6" ry="101.6" fill="#a7c2d5" opacity="0.042"/>
    <ellipse cx="1793.9" cy="221.3" rx="310.0" ry="92.5" fill="#a7c2d5" opacity="0.067"/>
    <ellipse cx="2002.1" cy="302.7" rx="339.6" ry="76.3" fill="#a7c2d5" opacity="0.039"/>
    <ellipse cx="1089.5" cy="212.3" rx="235.8" ry="92.8" fill="#a7c2d5" opacity="0.062"/>
  </g>

  <path d="M 0 1440 L 0 570 L 106.67 618.68 L 213.33 617.97 L 320.00 643.63 L 426.67 626.37 L 533.33 636.27 L 640.00 633.07 L 746.67 616.25 L 853.33 626.45 L 960.00 618.69 L 1066.67 576.42 L 1173.33 588.88 L 1280.00 556.73 L 1386.67 524.48 L 1493.33 528.06 L 1600.00 521.19 L 1706.67 488.84 L 1813.33 489.40 L 1920.00 488.82 L 2026.67 484.35 L 2133.33 510.78 L 2240.00 512.94 L 2346.67 546.70 L 2453.33 561.71 L 2560.00 577.97 L 2560 1440 Z" fill="#14253a" opacity="0.68"/>
  <path d="M 0 1440 L 0 705 L 91.43 785.98 L 182.86 807.82 L 274.29 764.02 L 365.71 771.78 L 457.14 754.37 L 548.57 722.33 L 640.00 698.58 L 731.43 656.55 L 822.86 653.55 L 914.29 599.71 L 1005.71 604.15 L 1097.14 617.28 L 1188.57 613.34 L 1280.00 615.01 L 1371.43 643.61 L 1462.86 698.40 L 1554.29 685.87 L 1645.71 721.59 L 1737.14 764.19 L 1828.57 765.64 L 1920.00 766.36 L 2011.43 811.12 L 2102.86 797.62 L 2194.29 796.80 L 2285.71 753.40 L 2377.14 752.24 L 2468.57 729.94 L 2560.00 698.23 L 2560 1440 Z" fill="#0f1d2e" opacity="0.8"/>
  <path d="M 0 1440 L 0 840 L 80.00 934.37 L 160.00 910.21 L 240.00 871.16 L 320.00 818.74 L 400.00 796.20 L 480.00 781.69 L 560.00 750.72 L 640.00 752.69 L 720.00 757.62 L 800.00 782.07 L 880.00 785.35 L 960.00 806.54 L 1040.00 873.47 L 1120.00 910.50 L 1200.00 916.26 L 1280.00 917.71 L 1360.00 956.82 L 1440.00 955.81 L 1520.00 908.62 L 1600.00 878.75 L 1680.00 857.05 L 1760.00 827.34 L 1840.00 758.44 L 1920.00 771.21 L 2000.00 747.37 L 2080.00 731.76 L 2160.00 783.47 L 2240.00 802.24 L 2320.00 811.69 L 2400.00 860.63 L 2480.00 870.43 L 2560.00 918.18 L 2560 1440 Z" fill="#0a1422" opacity="0.9"/>

  <g>
    <ellipse cx="1280" cy="508" rx="1180" ry="206" fill="#a4bed2" opacity="0.18" filter="url(#blurSoft)"/>
    <ellipse cx="1280" cy="628" rx="1360" ry="228" fill="#8ca7bc" opacity="0.11" filter="url(#blurSoft)"/>
    <ellipse cx="1280" cy="842" rx="1520" ry="252" fill="#5f7f94" opacity="0.1" filter="url(#blurWide)"/>
  </g>

  <rect width="2560" height="1440" fill="#0b1521" opacity="0.42" filter="url(#grain)"/>
</svg>